<?xml version="1.0" standalone="no"?>
<!DOCTYPE svg PUBLIC "-//W3C//DTD SVG 20010904//EN"
 "http://www.w3.org/TR/2001/REC-SVG-20010904/DTD/svg10.dtd">
<svg version="1.0" xmlns="http://www.w3.org/2000/svg"
 width="512.000000pt" height="512.000000pt" viewBox="0 0 512.000000 512.000000"
 preserveAspectRatio="xMidYMid meet">
<metadata>
Created by potrace 1.16, written by Peter Selinger 2001-2019
</metadata>
<g transform="translate(0.000000,512.000000) scale(0.100000,-0.100000)"
fill="#000000" stroke="none">
<path d="M3050 3674 c-163 -19 -320 -63 -356 -99 l-24 -24 0 -1024 c0 -1021 0
-1024 21 -1051 l20 -26 938 0 c1035 0 989 -3 1126 65 121 59 214 151 279 275
48 91 66 170 66 287 0 183 -55 318 -179 443 -128 130 -272 190 -450 190 -75 0
-171 -15 -222 -35 -13 -5 -18 7 -29 72 -72 448 -434 823 -876 907 -85 16 -256
27 -314 20z"/>
<path d="M2503 3515 c-12 -8 -24 -27 -27 -43 -3 -15 -11 -344 -17 -732 -10
-578 -10 -753 1 -973 11 -237 15 -271 32 -293 22 -27 72 -33 103 -11 24 18 30
67 45 367 11 206 11 358 -3 950 l-16 705 -26 23 c-30 26 -62 28 -92 7z"/>
<path d="M2302 3400 c-12 -5 -26 -20 -31 -32 -6 -13 -15 -318 -21 -679 -12
-678 -3 -1151 24 -1209 9 -20 20 -26 52 -28 72 -5 73 -2 90 311 13 241 13 353
0 933 -8 362 -17 666 -21 675 -6 15 -47 40 -63 38 -4 0 -17 -4 -30 -9z"/>
<path d="M1650 3240 c-17 -17 -20 -33 -20 -112 0 -51 -7 -313 -15 -583 -14
-446 -14 -515 1 -770 18 -306 22 -325 74 -325 52 0 56 19 75 325 17 265 17
309 1 805 -9 289 -16 551 -16 583 0 62 -21 97 -60 97 -11 0 -29 -9 -40 -20z"/>
<path d="M1856 3208 c-11 -19 -17 -135 -30 -598 -14 -519 -14 -601 0 -845 18
-300 21 -315 78 -315 18 0 39 7 46 15 8 9 18 111 30 292 17 266 17 303 -1 858
-9 319 -18 581 -18 582 -1 1 -8 9 -17 17 -23 24 -71 20 -88 -6z"/>
<path d="M1440 3195 c-10 -12 -18 -161 -31 -588 -17 -554 -17 -581 1 -850 11
-179 22 -283 30 -292 15 -19 64 -20 78 -2 6 7 21 139 32 294 l21 281 -20 572
c-14 382 -25 577 -32 586 -15 19 -64 18 -79 -1z"/>
<path d="M2066 3168 c-12 -19 -17 -127 -28 -578 -11 -465 -11 -599 0 -825 15
-301 18 -315 77 -315 66 0 66 -1 86 374 9 158 9 319 0 660 -15 584 -20 673
-38 692 -23 23 -80 18 -97 -8z"/>
<path d="M1231 3106 c-8 -9 -18 -184 -31 -542 -20 -528 -20 -529 0 -814 17
-241 23 -287 37 -297 21 -16 35 -16 57 0 16 12 21 50 41 296 l22 282 -22 529
c-16 396 -24 532 -34 544 -17 20 -55 21 -70 2z"/>
<path d="M1037 2917 c-16 -11 -20 -62 -39 -445 l-20 -433 20 -281 c13 -167 26
-286 33 -294 18 -22 58 -17 68 9 5 12 19 143 31 290 l21 269 -22 426 c-22 431
-27 472 -62 472 -7 0 -21 -6 -30 -13z"/>
<path d="M624 2618 c-4 -6 -18 -139 -30 -296 l-23 -284 23 -278 c13 -153 27
-283 30 -289 12 -19 46 -12 56 12 5 12 20 142 34 289 l24 267 -25 283 c-14
156 -30 289 -36 296 -12 15 -44 16 -53 0z"/>
<path d="M425 2600 c-3 -6 -17 -134 -31 -285 l-25 -276 25 -270 c14 -148 28
-274 31 -279 9 -14 31 -12 43 3 6 6 23 131 38 276 l27 263 -27 281 c-15 154
-29 284 -32 289 -7 11 -42 10 -49 -2z"/>
<path d="M835 2587 c-14 -11 -20 -55 -39 -279 l-23 -266 22 -282 c23 -298 28
-320 73 -306 26 9 27 12 53 323 l22 262 -22 248 c-12 137 -24 258 -27 270 -6
31 -36 46 -59 30z"/>
<path d="M225 2508 c-3 -7 -16 -116 -30 -241 l-25 -228 25 -227 c14 -125 28
-233 30 -239 7 -21 35 -15 44 10 4 12 20 121 35 242 l27 220 -25 205 c-35 279
-33 270 -57 270 -11 0 -22 -6 -24 -12z"/>
<path d="M42 2338 c-6 -7 -18 -77 -28 -155 -17 -137 -17 -149 0 -285 18 -144
33 -185 57 -161 7 7 22 77 35 156 l22 145 -22 144 c-26 169 -35 190 -64 156z"/>
</g>
</svg>
