<?xml version="1.0" encoding="UTF-8"?>
<svg xmlns="http://www.w3.org/2000/svg" xmlns:xlink="http://www.w3.org/1999/xlink" width="28px" height="28px" viewBox="0 0 28 28" version="1.1">
<g id="surface1">
<path style=" stroke:none;fill-rule:nonzero;fill:rgb(0%,0%,0%);fill-opacity:1;" d="M 12.222656 0.0820312 C 9.695312 0.410156 7.382812 1.378906 5.359375 2.941406 C 4.71875 3.441406 3.632812 4.511719 3.101562 5.167969 C 1.589844 7.039062 0.589844 9.246094 0.164062 11.652344 C 0.0117188 12.507812 -0.0507812 14.558594 0.0507812 15.492188 C 0.398438 18.742188 1.847656 21.726562 4.1875 24.011719 C 5.332031 25.125 6.453125 25.921875 7.792969 26.578125 C 9.09375 27.210938 10.285156 27.59375 11.707031 27.839844 C 12.355469 27.957031 12.628906 27.96875 13.972656 27.972656 C 15.609375 27.972656 16.0625 27.929688 17.238281 27.648438 C 22.480469 26.410156 26.578125 22.226562 27.722656 16.949219 C 28.109375 15.144531 28.097656 12.765625 27.695312 10.953125 C 27.121094 8.371094 25.898438 6.128906 24.035156 4.214844 C 21.78125 1.902344 18.921875 0.476562 15.75 0.0820312 C 14.917969 -0.015625 13.011719 -0.015625 12.222656 0.0820312 Z M 14.546875 7.519531 C 17.101562 7.789062 19.683594 8.417969 21.460938 9.199219 C 22.324219 9.574219 23.257812 10.074219 23.476562 10.277344 C 24.386719 11.097656 23.859375 12.582031 22.664062 12.582031 C 22.371094 12.582031 22.269531 12.546875 21.488281 12.144531 C 19.6875 11.222656 17.824219 10.660156 15.421875 10.3125 C 13.878906 10.09375 13.015625 10.046875 11.140625 10.078125 C 8.953125 10.117188 7.832031 10.253906 6.207031 10.675781 C 5.4375 10.878906 5.128906 10.886719 4.789062 10.71875 C 3.988281 10.335938 3.816406 9.191406 4.46875 8.574219 C 4.6875 8.367188 5.027344 8.230469 5.800781 8.039062 C 7.003906 7.742188 8.628906 7.503906 10.035156 7.414062 C 10.824219 7.367188 13.742188 7.433594 14.546875 7.519531 Z M 14.054688 12.359375 C 15.71875 12.578125 17.277344 12.960938 18.664062 13.484375 C 19.988281 13.988281 21.441406 14.753906 21.734375 15.097656 C 22.316406 15.792969 21.808594 16.898438 20.914062 16.898438 C 20.695312 16.898438 20.539062 16.839844 19.964844 16.527344 C 18.085938 15.503906 16.171875 14.902344 13.78125 14.574219 C 12.890625 14.453125 10.804688 14.40625 9.839844 14.488281 C 8.859375 14.570312 7.65625 14.769531 6.851562 14.984375 C 6.511719 15.078125 6.148438 15.148438 6.039062 15.148438 C 5.714844 15.148438 5.371094 14.953125 5.191406 14.667969 C 4.882812 14.1875 5.019531 13.4375 5.464844 13.152344 C 5.933594 12.847656 7.980469 12.410156 9.679688 12.25 C 10.570312 12.167969 13.085938 12.226562 14.054688 12.359375 Z M 13.34375 16.847656 C 14.851562 16.984375 16.546875 17.402344 17.882812 17.964844 C 18.351562 18.160156 19.429688 18.707031 19.757812 18.921875 C 20.539062 19.417969 20.285156 20.589844 19.398438 20.589844 C 19.152344 20.589844 19.042969 20.546875 18.609375 20.300781 C 16.679688 19.179688 14.113281 18.539062 11.542969 18.539062 C 10.332031 18.539062 8.53125 18.734375 7.355469 18.992188 C 7.054688 19.058594 6.644531 19.113281 6.441406 19.113281 C 6.097656 19.113281 6.066406 19.101562 5.878906 18.921875 C 5.617188 18.671875 5.535156 18.390625 5.628906 18.058594 C 5.699219 17.785156 5.847656 17.585938 6.074219 17.472656 C 6.277344 17.363281 7.753906 17.078125 8.773438 16.949219 C 10.347656 16.746094 11.800781 16.710938 13.34375 16.847656 Z M 13.34375 16.847656 "/>
</g>
</svg>
