<?xml version="1.0" standalone="no"?>
<!DOCTYPE svg PUBLIC "-//W3C//DTD SVG 20010904//EN"
 "http://www.w3.org/TR/2001/REC-SVG-20010904/DTD/svg10.dtd">
<svg version="1.0" xmlns="http://www.w3.org/2000/svg"
 width="512.000000pt" height="512.000000pt" viewBox="0 0 512.000000 512.000000"
 preserveAspectRatio="xMidYMid meet">
<metadata>
Created by potrace 1.16, written by Peter Selinger 2001-2019
</metadata>
<g transform="translate(0.000000,512.000000) scale(0.100000,-0.100000)"
fill="#000000" stroke="none">
<path d="M3376 4640 c-226 -36 -435 -142 -594 -302 -162 -163 -256 -340 -298
-558 -16 -81 -21 -275 -9 -354 l8 -49 -85 6 c-352 27 -789 161 -1123 344 -127
70 -326 202 -435 290 -107 86 -311 283 -387 374 -74 89 -86 88 -134 -8 -123
-247 -144 -558 -54 -822 53 -155 141 -297 257 -414 75 -75 79 -72 -60 -36 -41
11 -109 36 -152 55 -111 51 -114 48 -107 -79 15 -249 115 -480 288 -662 112
-117 212 -188 356 -250 l75 -33 -67 -7 c-38 -4 -112 -2 -172 4 -140 16 -140
17 -82 -122 115 -280 367 -507 664 -600 44 -14 103 -28 130 -32 85 -11 85 -13
-5 -72 -230 -151 -530 -263 -825 -309 -98 -15 -375 -21 -525 -11 -31 2 -35 -1
-38 -23 -2 -22 8 -32 80 -75 352 -211 774 -354 1198 -407 157 -19 582 -16 745
6 689 93 1251 369 1716 843 244 248 411 487 569 816 193 401 300 872 300 1317
l0 107 99 81 c186 155 411 416 411 479 0 32 -18 30 -143 -17 -91 -35 -216 -71
-318 -94 -21 -5 -11 9 52 71 43 42 101 109 129 149 63 91 130 229 137 283 5
37 4 41 -16 41 -12 0 -64 -22 -114 -49 -121 -65 -297 -133 -428 -168 l-106
-27 -74 60 c-218 179 -408 252 -669 259 -74 2 -161 0 -194 -5z"/>
</g>
</svg>
