<?xml version="1.0" encoding="UTF-8"?>
<svg xmlns="http://www.w3.org/2000/svg" xmlns:xlink="http://www.w3.org/1999/xlink" width="39px" height="px" viewBox="0 0 39 39" version="1.1">
<g id="surface1">
<path style=" stroke:none;fill-rule:nonzero;fill:rgb(15.686275%,23.921569%,35.686275%);fill-opacity:1;" d="M 26.386719 17.625 C 26.140625 17.078125 25.890625 16.523438 25.890625 15.90625 C 25.890625 15.386719 26.125 14.960938 26.179688 14.464844 C 26.203125 14.265625 26.195312 14.136719 25.980469 14.085938 C 25.769531 14.039062 25.570312 14.046875 25.363281 14.113281 C 24.960938 14.242188 24.496094 14.503906 24.222656 14.851562 C 24.207031 15.121094 23.910156 15.371094 23.636719 15.15625 C 22.667969 14.410156 21.230469 14.390625 20.0625 14.433594 C 18.964844 14.480469 17.792969 14.609375 16.75 14.96875 C 16.6875 14.992188 16.621094 15 16.566406 14.992188 C 16.476562 14.992188 16.375 14.953125 16.292969 14.875 C 16.003906 14.59375 15.707031 14.320312 15.386719 14.078125 C 15.050781 13.824219 14.617188 13.484375 14.183594 13.460938 C 13.328125 13.414062 13.871094 14.96875 14.070312 15.660156 C 14.230469 15.769531 14.3125 15.980469 14.183594 16.1875 C 13.816406 16.734375 13.15625 17.160156 12.925781 17.800781 C 12.707031 18.425781 12.726562 19.074219 12.878906 19.714844 C 13.011719 20.292969 13.238281 20.808594 13.605469 21.28125 C 13.886719 21.648438 14.359375 22.242188 14.890625 22.144531 C 15.003906 22.121094 15.105469 22.152344 15.179688 22.203125 C 16.15625 22.347656 16.957031 23.117188 17.183594 24.078125 C 17.445312 25.191406 16.8125 26.15625 15.753906 26.523438 C 14.640625 26.910156 13.613281 26.554688 13.085938 25.503906 C 12.910156 25.160156 12.8125 24.757812 12.589844 24.4375 C 12.445312 24.230469 12.261719 24.148438 12.050781 24.132812 C 12.21875 24.953125 12.125 25.875 12.765625 26.5 C 13.488281 27.199219 14.480469 27.035156 15.394531 27.109375 C 16.078125 27.171875 16.582031 27.542969 16.445312 28.289062 C 16.363281 28.761719 16.171875 29.226562 16.011719 29.683594 C 15.851562 30.148438 15.820312 30.546875 15.8125 31.015625 C 15.925781 31.03125 16.050781 31.054688 16.164062 31.070312 C 18.402344 31.351562 20.671875 30.988281 22.746094 30.117188 C 22.699219 30.003906 22.699219 29.867188 22.796875 29.738281 C 22.933594 29.554688 22.929688 29.242188 22.921875 29.027344 C 22.90625 28.664062 22.851562 28.289062 22.761719 27.933594 C 22.617188 27.339844 22.449219 26.683594 22.105469 26.171875 C 21.703125 25.5625 21.121094 24.984375 21.023438 24.230469 C 20.941406 23.589844 21.28125 22.59375 22.019531 22.523438 C 22.113281 22.515625 22.195312 22.539062 22.257812 22.578125 C 22.972656 22.484375 23.703125 22.363281 24.382812 22.113281 C 25.03125 21.867188 25.554688 21.535156 26.035156 21.039062 C 26.445312 20.613281 26.789062 20.078125 26.828125 19.476562 C 26.867188 18.808594 26.652344 18.210938 26.386719 17.625 Z M 26.386719 17.625 "/>
<path style=" stroke:none;fill-rule:nonzero;fill:rgb(83.921569%,89.803922%,89.803922%);fill-opacity:1;" d="M 30.917969 16.964844 C 30.082031 13.230469 27.035156 10.230469 23.421875 9.109375 C 21.714844 8.585938 19.894531 8.402344 18.136719 8.722656 C 16.574219 9.003906 15.15625 9.703125 13.839844 10.574219 C 12.429688 11.507812 11.089844 12.628906 10.085938 14.007812 C 9.375 14.984375 8.8125 16.164062 8.851562 17.375 C 8.851562 17.382812 8.84375 17.398438 8.84375 17.40625 C 8.820312 17.832031 8.773438 18.25 8.738281 18.675781 C 8.699219 18.691406 8.667969 18.699219 8.628906 18.707031 C 8.585938 19.210938 8.507812 19.722656 8.492188 20.230469 C 8.476562 20.765625 8.476562 21.296875 8.507812 21.839844 C 8.5625 22.890625 8.699219 23.941406 8.980469 24.953125 C 9.40625 26.460938 10.125 27.917969 11.289062 28.992188 C 12.347656 29.964844 13.65625 30.558594 15.035156 30.871094 L 15.035156 30.820312 C 15.035156 30.804688 15.035156 30.78125 15.035156 30.765625 C 15.042969 30.394531 15.074219 30.042969 15.203125 29.660156 C 15.355469 29.1875 15.570312 28.710938 15.660156 28.222656 C 15.707031 27.960938 15.707031 27.925781 15.449219 27.886719 C 15.058594 27.832031 14.65625 27.863281 14.257812 27.839844 C 13.792969 27.808594 13.316406 27.742188 12.894531 27.535156 C 12.46875 27.324219 12.1875 27.035156 11.898438 26.660156 C 11.289062 25.867188 11.515625 24.832031 11.167969 23.949219 C 11.097656 23.773438 11.203125 23.507812 11.402344 23.460938 C 12.171875 23.285156 12.894531 23.429688 13.285156 24.175781 C 13.582031 24.734375 13.742188 25.609375 14.394531 25.867188 C 15.234375 26.195312 16.515625 25.53125 16.453125 24.558594 C 16.398438 23.695312 15.738281 23.019531 14.882812 22.933594 C 14.847656 22.933594 14.816406 22.929688 14.785156 22.914062 C 14.144531 22.929688 13.582031 22.476562 13.175781 22 C 12.71875 21.457031 12.371094 20.847656 12.1875 20.164062 C 11.972656 19.355469 11.90625 18.539062 12.132812 17.734375 C 12.339844 17.007812 12.917969 16.558594 13.359375 16.003906 C 13.253906 15.3125 12.917969 14.65625 12.941406 13.9375 C 12.957031 13.390625 13.34375 12.757812 13.9375 12.707031 C 14.992188 12.613281 15.949219 13.484375 16.679688 14.199219 C 17.816406 13.847656 19.035156 13.703125 20.214844 13.671875 C 21.351562 13.640625 22.675781 13.703125 23.695312 14.28125 C 24.0625 13.863281 24.617188 13.558594 25.128906 13.390625 C 25.664062 13.214844 26.402344 13.230469 26.765625 13.71875 C 27.117188 14.175781 26.894531 14.808594 26.742188 15.296875 C 26.523438 16.011719 26.773438 16.644531 27.070312 17.289062 C 27.382812 17.984375 27.65625 18.746094 27.582031 19.523438 C 27.503906 20.230469 27.199219 20.847656 26.734375 21.382812 C 26.210938 21.984375 25.585938 22.464844 24.832031 22.746094 C 23.980469 23.066406 23.09375 23.238281 22.195312 23.347656 C 22.128906 23.355469 22.066406 23.347656 22.011719 23.332031 C 21.9375 23.421875 21.832031 23.628906 21.808594 23.703125 C 21.753906 23.855469 21.746094 24.015625 21.777344 24.175781 C 21.847656 24.527344 22.074219 24.847656 22.28125 25.128906 C 22.644531 25.632812 22.964844 26.113281 23.179688 26.707031 C 23.40625 27.34375 23.589844 28.03125 23.652344 28.710938 C 23.683594 29.042969 23.6875 29.394531 23.605469 29.722656 C 24.800781 29.128906 25.90625 28.359375 26.882812 27.453125 C 29.722656 24.808594 31.808594 20.933594 30.917969 16.964844 Z M 30.917969 16.964844 "/>
<path style=" stroke:none;fill-rule:nonzero;fill:rgb(83.921569%,89.803922%,89.803922%);fill-opacity:1;" d="M 36.347656 13.109375 C 34.726562 9.804688 31.65625 7.207031 28.414062 5.566406 C 25.160156 3.914062 21.390625 3.046875 17.742188 3.625 C 11.730469 4.570312 5.910156 8.980469 4.1875 14.890625 C 4.1875 14.960938 4.175781 15.019531 4.136719 15.089844 C 4.105469 15.195312 4.074219 15.3125 4.050781 15.417969 C 4.015625 15.492188 3.976562 15.570312 3.945312 15.652344 C 3.9375 15.722656 3.921875 15.796875 3.914062 15.859375 C 3.847656 16.171875 3.761719 16.484375 3.710938 16.796875 C 3.601562 17.382812 3.625 17.992188 3.421875 18.546875 C 3.40625 18.707031 3.382812 18.867188 3.359375 19.027344 C 3.359375 19.050781 3.359375 19.066406 3.359375 19.082031 C 3.320312 19.417969 3.289062 19.75 3.261719 20.085938 C 3.199219 20.789062 3.167969 21.488281 3.175781 22.1875 C 3.199219 23.566406 3.359375 24.945312 3.703125 26.28125 C 4.363281 28.816406 5.644531 31.214844 7.664062 32.929688 C 9.050781 34.109375 10.671875 34.886719 12.414062 35.390625 C 14.320312 35.945312 16.300781 36.257812 18.289062 36.265625 C 22.210938 36.273438 26.148438 35.207031 29.378906 32.9375 C 35.351562 28.730469 39.851562 20.230469 36.347656 13.109375 Z M 18.914062 31.863281 C 15.394531 32.183594 11.53125 31.160156 9.527344 28.046875 C 8.660156 26.699219 8.15625 25.144531 7.921875 23.566406 C 7.800781 22.746094 7.730469 21.914062 7.730469 21.085938 C 7.730469 20.648438 7.738281 20.214844 7.761719 19.78125 C 7.792969 19.300781 7.882812 18.828125 7.898438 18.355469 C 7.90625 18.175781 8.019531 18.046875 8.164062 17.992188 C 7.898438 16.375 8.554688 14.800781 9.523438 13.496094 C 10.664062 11.953125 12.203125 10.679688 13.832031 9.671875 C 15.179688 8.84375 16.613281 8.1875 18.191406 7.9375 C 19.941406 7.65625 21.777344 7.800781 23.476562 8.324219 C 27.027344 9.429688 30.1875 12.105469 31.367188 15.707031 C 33.925781 23.507812 26.371094 31.183594 18.914062 31.863281 Z M 18.914062 31.863281 "/>
<path style=" stroke:none;fill-rule:nonzero;fill:rgb(0%,0%,0%);fill-opacity:1;" d="M 17.367188 2.917969 C 16.710938 3.03125 16.066406 3.183594 15.425781 3.367188 L 24.886719 3.367188 C 22.441406 2.6875 19.867188 2.484375 17.367188 2.917969 Z M 17.367188 2.917969 "/>
<path style=" stroke:none;fill-rule:nonzero;fill:rgb(0%,0%,0%);fill-opacity:1;" d="M 36.328125 11.515625 C 34.40625 8.441406 31.304688 6.0625 28.046875 4.539062 C 27.027344 4.066406 25.96875 3.671875 24.878906 3.367188 L 15.425781 3.367188 C 9.933594 4.972656 4.996094 9.246094 3.433594 14.769531 C 3.183594 15.1875 3.144531 15.765625 3.039062 16.230469 C 2.964844 16.558594 2.910156 16.894531 2.863281 17.230469 C 2.855469 17.261719 2.855469 17.296875 2.847656 17.328125 C 2.839844 17.351562 2.832031 17.367188 2.832031 17.390625 C 2.773438 17.710938 2.71875 18.03125 2.671875 18.351562 C 2.671875 18.359375 2.664062 18.359375 2.664062 18.363281 C 2.628906 18.457031 2.621094 18.539062 2.636719 18.609375 C 2.558594 19.226562 2.507812 19.84375 2.460938 20.460938 C 2.398438 21.328125 2.390625 22.203125 2.4375 23.074219 C 2.535156 24.769531 2.863281 26.460938 3.449219 28.0625 C 4.617188 31.246094 6.917969 33.890625 10.007812 35.320312 C 11.769531 36.128906 13.726562 36.59375 15.636719 36.84375 C 17.582031 37.09375 19.5625 37.082031 21.503906 36.796875 C 25.378906 36.234375 29.007812 34.535156 31.871094 31.863281 C 34.644531 29.28125 36.820312 25.953125 37.820312 22.28125 C 38.824219 18.632812 38.34375 14.746094 36.328125 11.515625 Z M 29.371094 32.945312 C 26.140625 35.214844 22.203125 36.28125 18.28125 36.273438 C 16.300781 36.265625 14.320312 35.953125 12.414062 35.398438 C 10.671875 34.886719 9.050781 34.117188 7.664062 32.9375 C 5.644531 31.222656 4.363281 28.824219 3.703125 26.285156 C 3.351562 24.953125 3.199219 23.574219 3.175781 22.195312 C 3.160156 21.496094 3.191406 20.796875 3.261719 20.09375 C 3.289062 19.757812 3.320312 19.421875 3.359375 19.089844 C 3.359375 19.074219 3.359375 19.050781 3.359375 19.035156 C 3.382812 18.875 3.40625 18.714844 3.421875 18.554688 C 3.625 18 3.601562 17.382812 3.710938 16.804688 C 3.769531 16.492188 3.847656 16.179688 3.914062 15.867188 C 3.929688 15.804688 3.9375 15.738281 3.945312 15.660156 C 3.976562 15.585938 4.015625 15.5 4.050781 15.425781 C 4.082031 15.316406 4.105469 15.203125 4.136719 15.097656 C 4.175781 15.027344 4.195312 14.960938 4.1875 14.898438 C 5.910156 8.980469 11.730469 4.570312 17.742188 3.625 C 21.390625 3.046875 25.152344 3.914062 28.414062 5.566406 C 31.65625 7.207031 34.71875 9.8125 36.347656 13.109375 C 39.851562 20.230469 35.351562 28.730469 29.371094 32.945312 Z M 29.371094 32.945312 "/>
<path style=" stroke:none;fill-rule:nonzero;fill:rgb(0.392157%,0.392157%,0.392157%);fill-opacity:1;" d="M 31.359375 15.714844 C 30.171875 12.109375 27.019531 9.4375 23.46875 8.332031 C 21.769531 7.808594 19.941406 7.664062 18.183594 7.945312 C 16.605469 8.195312 15.171875 8.84375 13.824219 9.679688 C 12.195312 10.6875 10.664062 11.964844 9.515625 13.503906 C 8.546875 14.808594 7.890625 16.382812 8.15625 18 C 8.019531 18.054688 7.898438 18.175781 7.890625 18.363281 C 7.875 18.835938 7.777344 19.316406 7.753906 19.789062 C 7.730469 20.222656 7.722656 20.65625 7.722656 21.09375 C 7.730469 21.921875 7.792969 22.753906 7.914062 23.574219 C 8.148438 25.152344 8.652344 26.707031 9.523438 28.054688 C 11.523438 31.160156 15.386719 32.183594 18.90625 31.871094 C 26.371094 31.183594 33.925781 23.507812 31.359375 15.714844 Z M 22.789062 29.730469 C 22.691406 29.859375 22.691406 29.996094 22.738281 30.109375 C 20.664062 30.980469 18.394531 31.34375 16.15625 31.0625 C 16.042969 31.046875 15.921875 31.03125 15.804688 31.007812 C 15.8125 30.539062 15.84375 30.140625 16.003906 29.675781 C 16.15625 29.21875 16.347656 28.753906 16.4375 28.28125 C 16.574219 27.535156 16.066406 27.164062 15.386719 27.101562 C 14.464844 27.027344 13.480469 27.1875 12.757812 26.492188 C 12.109375 25.875 12.210938 24.945312 12.042969 24.125 C 12.257812 24.132812 12.4375 24.214844 12.582031 24.429688 C 12.804688 24.75 12.910156 25.144531 13.078125 25.496094 C 13.605469 26.554688 14.632812 26.902344 15.746094 26.515625 C 16.796875 26.148438 17.4375 25.183594 17.175781 24.070312 C 16.949219 23.109375 16.148438 22.339844 15.171875 22.195312 C 15.097656 22.144531 15.003906 22.113281 14.882812 22.136719 C 14.351562 22.234375 13.886719 21.640625 13.597656 21.273438 C 13.230469 20.800781 13.011719 20.285156 12.871094 19.707031 C 12.726562 19.066406 12.699219 18.417969 12.917969 17.792969 C 13.148438 17.152344 13.808594 16.734375 14.175781 16.179688 C 14.3125 15.972656 14.222656 15.761719 14.0625 15.652344 C 13.863281 14.953125 13.324219 13.40625 14.175781 13.453125 C 14.617188 13.476562 15.050781 13.816406 15.378906 14.070312 C 15.699219 14.3125 16.003906 14.585938 16.285156 14.867188 C 16.371094 14.953125 16.460938 14.984375 16.558594 14.984375 C 16.621094 14.992188 16.679688 14.984375 16.742188 14.960938 C 17.785156 14.601562 18.960938 14.464844 20.054688 14.425781 C 21.222656 14.382812 22.660156 14.402344 23.628906 15.152344 C 23.902344 15.363281 24.199219 15.113281 24.214844 14.847656 C 24.488281 14.496094 24.945312 14.238281 25.359375 14.105469 C 25.570312 14.039062 25.761719 14.03125 25.972656 14.078125 C 26.195312 14.121094 26.195312 14.257812 26.171875 14.457031 C 26.121094 14.953125 25.882812 15.378906 25.882812 15.898438 C 25.882812 16.507812 26.125 17.070312 26.378906 17.617188 C 26.644531 18.203125 26.859375 18.808594 26.8125 19.453125 C 26.773438 20.0625 26.429688 20.589844 26.019531 21.015625 C 25.539062 21.511719 25.015625 21.855469 24.367188 22.089844 C 23.6875 22.339844 22.957031 22.46875 22.242188 22.554688 C 22.179688 22.515625 22.105469 22.492188 22.007812 22.5 C 21.265625 22.570312 20.925781 23.566406 21.007812 24.207031 C 21.105469 24.960938 21.6875 25.539062 22.089844 26.148438 C 22.433594 26.660156 22.601562 27.316406 22.746094 27.910156 C 22.828125 28.265625 22.882812 28.632812 22.90625 29.007812 C 22.929688 29.234375 22.933594 29.546875 22.789062 29.730469 Z M 26.890625 27.445312 C 25.914062 28.351562 24.800781 29.121094 23.613281 29.714844 C 23.695312 29.386719 23.6875 29.035156 23.660156 28.703125 C 23.597656 28.023438 23.414062 27.339844 23.1875 26.699219 C 22.972656 26.105469 22.652344 25.632812 22.289062 25.121094 C 22.082031 24.832031 21.855469 24.519531 21.785156 24.167969 C 21.753906 24.007812 21.761719 23.847656 21.816406 23.695312 C 21.839844 23.621094 21.945312 23.414062 22.019531 23.324219 C 22.074219 23.339844 22.136719 23.355469 22.203125 23.339844 C 23.101562 23.234375 23.988281 23.058594 24.839844 22.738281 C 25.59375 22.457031 26.210938 21.976562 26.742188 21.375 C 27.207031 20.839844 27.519531 20.222656 27.589844 19.515625 C 27.664062 18.738281 27.390625 17.976562 27.078125 17.285156 C 26.789062 16.628906 26.53125 16.003906 26.75 15.289062 C 26.902344 14.800781 27.125 14.167969 26.773438 13.710938 C 26.410156 13.222656 25.671875 13.207031 25.136719 13.382812 C 24.625 13.550781 24.070312 13.855469 23.703125 14.273438 C 22.683594 13.6875 21.359375 13.636719 20.222656 13.664062 C 19.042969 13.695312 17.824219 13.832031 16.6875 14.191406 C 15.957031 13.476562 15 12.605469 13.945312 12.699219 C 13.351562 12.75 12.964844 13.390625 12.949219 13.933594 C 12.925781 14.640625 13.261719 15.304688 13.367188 15.996094 C 12.925781 16.550781 12.347656 17.007812 12.140625 17.726562 C 11.914062 18.53125 11.980469 19.347656 12.195312 20.15625 C 12.378906 20.839844 12.726562 21.449219 13.183594 21.992188 C 13.589844 22.472656 14.152344 22.921875 14.792969 22.90625 C 14.824219 22.914062 14.851562 22.921875 14.890625 22.929688 C 15.746094 23.011719 16.40625 23.683594 16.460938 24.550781 C 16.523438 25.519531 15.234375 26.179688 14.402344 25.859375 C 13.75 25.601562 13.582031 24.734375 13.292969 24.167969 C 12.902344 23.421875 12.179688 23.277344 11.410156 23.453125 C 11.210938 23.5 11.105469 23.757812 11.175781 23.941406 C 11.523438 24.824219 11.289062 25.859375 11.90625 26.652344 C 12.195312 27.027344 12.476562 27.316406 12.902344 27.527344 C 13.324219 27.734375 13.800781 27.804688 14.265625 27.832031 C 14.664062 27.855469 15.058594 27.824219 15.457031 27.878906 C 15.714844 27.917969 15.714844 27.957031 15.667969 28.214844 C 15.578125 28.703125 15.363281 29.179688 15.210938 29.652344 C 15.089844 30.035156 15.050781 30.386719 15.042969 30.757812 C 15.042969 30.773438 15.042969 30.796875 15.042969 30.8125 L 15.042969 30.863281 C 13.65625 30.550781 12.355469 29.957031 11.296875 28.984375 C 10.132812 27.910156 9.40625 26.453125 8.988281 24.945312 C 8.707031 23.933594 8.570312 22.882812 8.515625 21.832031 C 8.484375 21.296875 8.484375 20.765625 8.5 20.222656 C 8.515625 19.714844 8.59375 19.210938 8.636719 18.699219 C 8.675781 18.691406 8.714844 18.683594 8.746094 18.667969 C 8.78125 18.242188 8.828125 17.824219 8.851562 17.398438 C 8.851562 17.390625 8.851562 17.375 8.859375 17.367188 C 8.820312 16.15625 9.382812 14.984375 10.09375 14 C 11.089844 12.621094 12.429688 11.503906 13.847656 10.566406 C 15.15625 9.695312 16.582031 8.996094 18.144531 8.714844 C 19.910156 8.394531 21.722656 8.578125 23.429688 9.101562 C 27.039062 10.222656 30.085938 13.222656 30.925781 16.957031 C 31.808594 20.933594 29.722656 24.808594 26.890625 27.445312 Z M 26.890625 27.445312 "/>
</g>
</svg>
