<?xml version="1.0" encoding="UTF-8"?>
<svg xmlns="http://www.w3.org/2000/svg" xmlns:xlink="http://www.w3.org/1999/xlink" width="39px" height="px" viewBox="0 0 39 39" version="1.1">
<g id="surface1">
<path style=" stroke:none;fill-rule:nonzero;fill:rgb(83.921569%,89.803922%,89.803922%);fill-opacity:1;" d="M 14.925781 36.363281 C 12.675781 36.363281 10.898438 36.398438 9.453125 35.734375 C 8.457031 35.277344 7.667969 34.75 6.851562 34.136719 C 6.210938 33.652344 5.042969 32.695312 4.394531 31.632812 C 4 30.996094 3.878906 30.316406 3.703125 29.726562 C 2.484375 25.625 3.003906 21.242188 2.660156 17.207031 C 2.503906 15.402344 2.792969 13.574219 2.976562 11.789062 C 3.011719 11.421875 3.054688 11.042969 3.121094 10.671875 C 3.316406 9.519531 3.695312 8.480469 4.242188 7.578125 C 4.605469 6.976562 5.0625 6.410156 5.601562 5.890625 C 6.402344 5.117188 7.335938 4.492188 8.371094 4.035156 C 10.121094 3.257812 11.867188 3.0625 13.648438 2.921875 L 16.761719 2.675781 C 18.6875 2.523438 20.703125 2.359375 22.746094 2.433594 C 24.496094 2.496094 26.203125 2.621094 27.785156 2.746094 C 28.480469 2.800781 29.351562 2.867188 30.277344 3.179688 C 31.738281 3.675781 33.0625 4.703125 34.003906 6.082031 C 34.695312 7.089844 35.421875 8.082031 35.757812 9.503906 C 36.175781 11.25 36.007812 13.117188 36.058594 14.601562 C 36.074219 15.046875 36.089844 15.488281 36.109375 15.929688 C 36.164062 16.964844 36.210938 17.996094 36.238281 19.03125 C 36.3125 21.496094 36.285156 23.550781 36.152344 25.496094 C 35.996094 27.863281 36.082031 30.914062 34.121094 33.003906 C 31.421875 35.871094 27.03125 36.570312 24.328125 36.605469 L 24.042969 36.605469 C 24.042969 36.605469 23.503906 36.601562 23.238281 36.597656 L 22.539062 36.589844 C 21.449219 36.59375 20.355469 36.28125 19.222656 36.382812 C 18.257812 36.472656 17.394531 36.28125 16.527344 36.320312 C 16.019531 36.34375 15.480469 36.363281 14.925781 36.363281 Z M 21.683594 5.285156 C 20.101562 5.285156 18.507812 5.417969 16.964844 5.542969 L 13.847656 5.785156 C 12.308594 5.910156 10.949219 6.117188 9.582031 6.722656 C 8.832031 7.054688 8.234375 7.4375 7.660156 7.992188 C 7.289062 8.351562 6.988281 8.75 6.742188 9.152344 C 6.367188 9.769531 6.097656 10.242188 5.957031 11.058594 C 5.90625 11.367188 5.871094 11.679688 5.839844 11.992188 C 5.664062 13.703125 5.5625 15.449219 5.539062 17.179688 C 5.480469 21.011719 5.585938 25.078125 6.699219 28.832031 C 6.820312 29.238281 7.011719 29.539062 7.253906 29.933594 C 7.640625 30.5625 8.226562 31.003906 8.746094 31.394531 C 9.46875 31.9375 10.128906 32.414062 10.882812 32.761719 C 11.964844 33.257812 13.160156 33.316406 15.007812 33.316406 C 15.519531 33.316406 16.015625 33.300781 16.484375 33.277344 C 17.335938 33.238281 18.183594 33.164062 19.035156 33.085938 C 20.25 32.976562 21.375 32.875 22.585938 32.871094 C 22.796875 32.871094 23 32.875 23.207031 32.878906 L 23.328125 32.878906 C 23.582031 32.882812 23.835938 32.886719 24.085938 32.886719 L 24.351562 32.886719 C 26.558594 32.859375 29.464844 32.710938 31.464844 30.589844 C 32.847656 29.113281 33.023438 27.226562 33.148438 25.332031 C 33.277344 23.476562 33.304688 21.503906 33.230469 19.125 C 33.203125 18.109375 33.15625 17.097656 33.105469 16.078125 C 33.082031 15.621094 33.066406 15.164062 33.050781 14.707031 C 33.003906 13.347656 33.007812 11.882812 32.65625 10.394531 C 32.394531 9.300781 31.9375 8.578125 31.433594 7.84375 C 30.816406 6.941406 30.300781 6.285156 29.386719 5.976562 C 28.773438 5.769531 28.152344 5.707031 27.546875 5.660156 C 25.996094 5.535156 24.34375 5.363281 22.636719 5.300781 C 22.320312 5.292969 22 5.285156 21.683594 5.285156 Z M 21.683594 5.285156 "/>
<path style=" stroke:none;fill-rule:nonzero;fill:rgb(0.392157%,0.392157%,0.392157%);fill-opacity:1;" d="M 14.921875 33.648438 C 13.394531 33.648438 11.894531 33.496094 10.644531 32.921875 C 9.886719 32.574219 9.230469 32.097656 8.515625 31.558594 C 8 31.171875 7.414062 30.730469 7.03125 30.109375 C 6.789062 29.714844 6.648438 29.269531 6.535156 28.886719 C 5.421875 25.140625 5.320312 21.078125 5.375 17.246094 C 5.398438 15.515625 5.5 13.773438 5.675781 12.066406 C 5.707031 11.75 5.742188 11.4375 5.792969 11.128906 C 5.933594 10.316406 6.191406 9.59375 6.5625 8.984375 C 6.804688 8.585938 7.117188 8.199219 7.488281 7.84375 C 8.058594 7.292969 8.722656 6.847656 9.46875 6.515625 C 10.828125 5.910156 12.324219 5.75 13.863281 5.625 L 16.976562 5.382812 C 18.828125 5.234375 20.746094 5.078125 22.644531 5.144531 C 24.339844 5.207031 26.015625 5.328125 27.570312 5.449219 C 28.175781 5.496094 28.800781 5.546875 29.410156 5.753906 C 30.3125 6.058594 31.152344 6.71875 31.765625 7.613281 C 32.261719 8.34375 32.632812 9.226562 32.890625 10.316406 C 33.246094 11.808594 33.300781 13.339844 33.347656 14.691406 L 33.351562 14.820312 C 33.363281 15.238281 33.378906 15.652344 33.398438 16.066406 C 33.453125 17.082031 33.496094 18.097656 33.527344 19.113281 C 33.597656 21.5 33.570312 23.472656 33.445312 25.3125 C 33.316406 27.199219 33.003906 29.328125 31.625 30.792969 C 29.640625 32.90625 26.46875 33.1875 24.257812 33.214844 C 23.929688 33.21875 23.597656 33.214844 23.269531 33.210938 C 22.996094 33.207031 22.730469 33.199219 22.445312 33.203125 C 21.277344 33.207031 20.085938 33.3125 18.9375 33.417969 C 18.105469 33.492188 17.25 33.570312 16.402344 33.609375 C 15.910156 33.632812 15.414062 33.648438 14.921875 33.648438 Z M 21.699219 5.941406 C 20.144531 5.941406 18.570312 6.070312 17.042969 6.195312 L 13.929688 6.4375 C 12.40625 6.558594 11.042969 6.707031 9.800781 7.257812 C 9.140625 7.550781 8.554688 7.945312 8.050781 8.429688 C 7.730469 8.738281 7.464844 9.066406 7.257812 9.40625 C 6.941406 9.929688 6.71875 10.554688 6.597656 11.265625 C 6.546875 11.558594 6.511719 11.851562 6.484375 12.148438 C 6.3125 13.832031 6.210938 15.550781 6.1875 17.257812 C 6.132812 21.023438 6.230469 25.011719 7.3125 28.65625 C 7.417969 29.003906 7.535156 29.371094 7.726562 29.683594 C 8.027344 30.175781 8.523438 30.550781 9.003906 30.910156 C 9.683594 31.421875 10.300781 31.871094 10.984375 32.183594 C 12.480469 32.871094 14.453125 32.882812 16.367188 32.800781 C 17.195312 32.761719 18.042969 32.683594 18.863281 32.609375 C 20.03125 32.503906 21.242188 32.394531 22.441406 32.390625 C 22.726562 32.390625 23.003906 32.394531 23.28125 32.398438 C 23.605469 32.402344 23.929688 32.410156 24.25 32.40625 C 26.484375 32.378906 29.277344 32.105469 31.035156 30.238281 C 32.234375 28.960938 32.519531 27.003906 32.636719 25.257812 C 32.757812 23.445312 32.785156 21.5 32.714844 19.136719 C 32.683594 18.128906 32.640625 17.117188 32.589844 16.109375 C 32.566406 15.6875 32.554688 15.269531 32.539062 14.851562 L 32.535156 14.722656 C 32.488281 13.40625 32.4375 11.917969 32.101562 10.503906 C 31.867188 9.511719 31.539062 8.71875 31.097656 8.078125 C 30.582031 7.324219 29.890625 6.773438 29.148438 6.523438 C 28.636719 6.351562 28.0625 6.304688 27.507812 6.261719 C 25.960938 6.140625 24.296875 6.019531 22.617188 5.957031 C 22.3125 5.945312 22.007812 5.941406 21.699219 5.941406 Z M 21.699219 5.941406 "/>
<path style=" stroke:none;fill-rule:nonzero;fill:rgb(0.392157%,0.392157%,0.392157%);fill-opacity:1;" d="M 21.257812 37.003906 C 20.445312 37.003906 19.636719 36.988281 18.832031 36.945312 C 18.097656 36.910156 17.359375 36.832031 16.644531 36.757812 C 15.925781 36.679688 15.179688 36.601562 14.453125 36.566406 L 13.644531 36.535156 C 12.441406 36.492188 11.195312 36.445312 9.972656 36.242188 C 9.195312 36.117188 8.378906 35.941406 7.660156 35.507812 C 7.144531 35.195312 6.726562 34.78125 6.320312 34.382812 L 4.789062 32.867188 C 4.414062 32.492188 4.027344 32.109375 3.734375 31.628906 C 3.394531 31.058594 3.230469 30.425781 3.117188 29.882812 C 2.714844 27.957031 2.691406 25.992188 2.726562 24.15625 C 2.75 23.019531 2.648438 21.867188 2.554688 20.753906 C 2.5 20.09375 2.441406 19.433594 2.410156 18.769531 C 2.324219 17.109375 2.273438 15.425781 2.261719 13.765625 C 2.242188 11.757812 2.304688 9.644531 3.222656 7.820312 C 4.078125 6.125 5.695312 4.707031 7.777344 3.824219 C 9.730469 3 11.835938 2.722656 13.640625 2.558594 C 14.261719 2.503906 14.878906 2.441406 15.496094 2.382812 C 16.777344 2.257812 18.109375 2.128906 19.421875 2.042969 C 20.753906 1.957031 22.136719 2.0625 23.472656 2.167969 C 24.03125 2.214844 24.585938 2.257812 25.132812 2.289062 C 27.410156 2.410156 29.988281 2.546875 32.179688 3.738281 C 34.382812 4.933594 35.96875 7.117188 36.425781 9.582031 C 36.648438 10.773438 36.675781 11.976562 36.675781 12.894531 C 36.679688 13.367188 36.667969 13.84375 36.660156 14.316406 C 36.652344 14.777344 36.644531 15.238281 36.644531 15.691406 C 36.644531 16.738281 36.671875 17.792969 36.703125 18.855469 C 36.761719 21.140625 36.824219 23.496094 36.605469 25.773438 C 36.40625 27.800781 35.984375 29.796875 35.347656 31.707031 C 35.199219 32.164062 35.023438 32.640625 34.71875 33.058594 C 34.390625 33.503906 33.941406 33.828125 33.546875 34.117188 C 32.535156 34.851562 31.488281 35.609375 30.269531 36.046875 C 29.425781 36.351562 28.527344 36.484375 27.75 36.585938 C 25.601562 36.867188 23.425781 37.003906 21.257812 37.003906 Z M 20.449219 2.824219 C 20.121094 2.824219 19.792969 2.832031 19.472656 2.855469 C 18.171875 2.9375 16.851562 3.070312 15.574219 3.191406 C 14.953125 3.253906 14.335938 3.3125 13.714844 3.371094 C 11.972656 3.527344 9.941406 3.792969 8.089844 4.574219 C 6.1875 5.378906 4.714844 6.660156 3.945312 8.1875 C 3.109375 9.847656 3.054688 11.769531 3.074219 13.757812 C 3.085938 15.40625 3.136719 17.078125 3.21875 18.726562 C 3.253906 19.382812 3.308594 20.03125 3.367188 20.683594 C 3.460938 21.816406 3.5625 22.992188 3.539062 24.167969 C 3.503906 25.957031 3.527344 27.871094 3.914062 29.714844 C 4.011719 30.191406 4.152344 30.742188 4.433594 31.207031 C 4.671875 31.601562 5.023438 31.949219 5.363281 32.289062 L 6.894531 33.804688 C 7.265625 34.167969 7.648438 34.546875 8.082031 34.808594 C 8.679688 35.171875 9.410156 35.324219 10.105469 35.441406 C 11.277344 35.632812 12.496094 35.675781 13.675781 35.722656 L 14.488281 35.753906 C 15.242188 35.785156 16 35.867188 16.734375 35.945312 C 17.433594 36.023438 18.160156 36.097656 18.871094 36.132812 C 21.796875 36.273438 24.746094 36.15625 27.648438 35.777344 C 28.378906 35.683594 29.226562 35.558594 29.996094 35.28125 C 31.105469 34.882812 32.105469 34.160156 33.070312 33.457031 C 33.433594 33.195312 33.8125 32.917969 34.066406 32.574219 C 34.300781 32.253906 34.449219 31.84375 34.582031 31.449219 C 35.199219 29.59375 35.609375 27.660156 35.796875 25.695312 C 36.011719 23.46875 35.949219 21.132812 35.890625 18.875 C 35.863281 17.808594 35.835938 16.742188 35.835938 15.691406 C 35.835938 15.234375 35.84375 14.765625 35.851562 14.300781 C 35.859375 13.832031 35.867188 13.363281 35.867188 12.894531 C 35.867188 12.011719 35.839844 10.855469 35.632812 9.730469 C 35.226562 7.535156 33.753906 5.511719 31.796875 4.449219 C 29.761719 3.347656 27.28125 3.214844 25.09375 3.097656 C 24.539062 3.066406 23.976562 3.023438 23.414062 2.976562 C 22.429688 2.902344 21.425781 2.824219 20.449219 2.824219 Z M 20.449219 2.824219 "/>
<path style=" stroke:none;fill-rule:nonzero;fill:rgb(83.921569%,89.803922%,89.803922%);fill-opacity:1;" d="M 29.125 9.234375 C 28.507812 8.71875 27.546875 8.632812 26.804688 9.101562 C 26.242188 9.457031 26.113281 10.285156 26.421875 10.875 C 26.945312 11.867188 28.761719 12.53125 29.492188 11.425781 C 29.734375 11.054688 29.792969 10.582031 29.691406 10.152344 C 29.597656 9.769531 29.394531 9.460938 29.125 9.234375 Z M 29.125 9.234375 "/>
<path style=" stroke:none;fill-rule:nonzero;fill:rgb(0.392157%,0.392157%,0.392157%);fill-opacity:1;" d="M 28.367188 12.40625 C 28.332031 12.40625 28.292969 12.40625 28.257812 12.402344 C 27.371094 12.359375 26.449219 11.796875 26.0625 11.0625 C 25.632812 10.246094 25.871094 9.214844 26.589844 8.757812 C 27.457031 8.210938 28.609375 8.277344 29.382812 8.921875 C 29.734375 9.214844 29.976562 9.609375 30.085938 10.054688 C 30.21875 10.617188 30.125 11.195312 29.828125 11.648438 C 29.507812 12.136719 28.992188 12.40625 28.367188 12.40625 Z M 27.878906 9.203125 C 27.582031 9.203125 27.28125 9.285156 27.023438 9.445312 C 26.667969 9.671875 26.554688 10.25 26.78125 10.683594 C 27.035156 11.164062 27.699219 11.5625 28.296875 11.589844 C 28.667969 11.601562 28.96875 11.476562 29.152344 11.199219 C 29.324219 10.941406 29.375 10.582031 29.296875 10.242188 C 29.230469 9.96875 29.078125 9.726562 28.863281 9.546875 C 28.589844 9.320312 28.238281 9.203125 27.878906 9.203125 Z M 27.878906 9.203125 "/>
<path style=" stroke:none;fill-rule:nonzero;fill:rgb(83.921569%,89.803922%,89.803922%);fill-opacity:1;" d="M 19.828125 27.488281 C 18.441406 27.488281 16.980469 27.660156 15.800781 27.019531 C 15.113281 26.648438 14.597656 26.292969 14.230469 25.960938 C 14.085938 25.832031 13.621094 25.417969 13.511719 25.351562 C 11.550781 24.121094 11.042969 21.171875 11.117188 19.316406 C 11.15625 18.175781 11.53125 17.253906 11.808594 16.582031 C 12.179688 15.660156 12.691406 14.398438 13.742188 13.324219 C 14.90625 12.140625 16.488281 11.425781 18.328125 11.261719 C 19.046875 11.195312 19.796875 11.21875 20.53125 11.324219 C 22.15625 11.558594 23.640625 12.152344 24.832031 13.042969 C 26.320312 14.152344 27.347656 15.707031 27.71875 17.421875 C 28.386719 20.488281 27.171875 23.945312 24.765625 25.832031 C 23.402344 26.898438 21.652344 27.488281 19.828125 27.488281 Z M 19.351562 14.234375 C 19.15625 14.234375 18.800781 14.351562 18.605469 14.367188 C 17.40625 14.476562 16.8125 14.484375 16.101562 15.207031 C 15.421875 15.902344 15.078125 16.8125 14.757812 17.605469 C 14.535156 18.152344 14.09375 18.828125 14.070312 19.5 C 14.023438 20.605469 14.621094 21.757812 15.644531 22.398438 C 15.898438 22.558594 15.972656 22.957031 16.214844 23.175781 C 16.519531 23.453125 16.988281 23.546875 17.394531 23.765625 C 19.210938 24.75 21.261719 24.613281 22.84375 23.375 C 24.417969 22.140625 25.113281 20.125 24.671875 18.085938 C 24.433594 17.003906 24.011719 16.046875 23.039062 15.320312 C 22.207031 14.695312 21.265625 14.585938 20.085938 14.414062 C 19.75 14.363281 19.679688 14.234375 19.351562 14.234375 Z M 19.351562 14.234375 "/>
<path style=" stroke:none;fill-rule:nonzero;fill:rgb(0.392157%,0.392157%,0.392157%);fill-opacity:1;" d="M 19.824219 24.777344 C 18.917969 24.777344 18.007812 24.5625 17.199219 24.125 C 16.796875 23.90625 16.476562 23.617188 16.167969 23.339844 C 15.921875 23.117188 15.6875 22.90625 15.425781 22.742188 C 14.417969 22.109375 13.785156 20.515625 13.828125 19.417969 C 13.851562 18.757812 14.101562 18.144531 14.320312 17.605469 C 14.640625 16.8125 15.007812 15.910156 15.679688 15.222656 C 16.382812 14.507812 17.382812 14.070312 18.570312 13.964844 C 19.082031 13.917969 19.609375 13.933594 20.144531 14.011719 C 21.320312 14.179688 22.378906 14.597656 23.210938 15.21875 C 24.171875 15.9375 24.832031 16.925781 25.066406 18 C 25.507812 20.019531 24.660156 22.46875 23.09375 23.695312 C 22.183594 24.410156 21.007812 24.777344 19.824219 24.777344 Z M 18.644531 14.773438 C 17.949219 14.835938 16.976562 15.0625 16.257812 15.792969 C 15.699219 16.367188 15.378906 17.152344 15.074219 17.910156 C 14.867188 18.414062 14.660156 18.933594 14.640625 19.453125 C 14.605469 20.28125 15.132812 21.601562 15.859375 22.054688 C 16.179688 22.257812 16.449219 22.5 16.710938 22.734375 C 16.996094 22.992188 17.269531 23.238281 17.585938 23.410156 C 19.148438 24.253906 21.25 24.105469 22.589844 23.054688 C 23.929688 22.011719 24.652344 19.910156 24.273438 18.171875 C 24.082031 17.300781 23.515625 16.460938 22.722656 15.867188 C 22 15.328125 21.066406 14.964844 20.027344 14.816406 C 19.554688 14.746094 19.089844 14.734375 18.644531 14.773438 Z M 18.644531 14.773438 "/>
<path style=" stroke:none;fill-rule:nonzero;fill:rgb(0.392157%,0.392157%,0.392157%);fill-opacity:1;" d="M 19.386719 28.125 C 18.003906 28.125 16.664062 27.851562 15.449219 27.3125 C 13.164062 26.292969 11.480469 24.421875 10.957031 22.316406 C 10.554688 20.699219 10.828125 19.058594 11.109375 17.8125 C 11.339844 16.796875 11.71875 15.320312 12.375 14.214844 C 12.941406 13.257812 13.707031 12.414062 14.59375 11.773438 C 15.167969 11.359375 15.757812 11.050781 16.34375 10.859375 C 16.347656 10.855469 16.421875 10.832031 16.425781 10.832031 C 18.117188 10.300781 19.980469 10.628906 21.472656 10.894531 C 23.453125 11.246094 25.511719 12.78125 26.679688 14.152344 C 26.996094 14.523438 27.21875 14.847656 27.382812 15.171875 C 27.730469 15.871094 27.835938 16.640625 27.890625 17.367188 C 28.058594 19.441406 27.878906 21.214844 27.347656 22.789062 C 26.511719 25.269531 24.917969 26.933594 22.738281 27.609375 C 21.621094 27.953125 20.492188 28.125 19.386719 28.125 Z M 16.546875 11.21875 L 16.605469 11.628906 C 16.089844 11.796875 15.574219 12.070312 15.066406 12.433594 C 14.273438 13.007812 13.585938 13.765625 13.074219 14.628906 C 12.476562 15.636719 12.121094 17.027344 11.902344 17.992188 C 11.636719 19.152344 11.382812 20.667969 11.746094 22.117188 C 12.210938 23.988281 13.71875 25.652344 15.78125 26.570312 C 17.777344 27.460938 20.164062 27.550781 22.5 26.832031 C 24.925781 26.082031 26.054688 24.078125 26.578125 22.527344 C 27.074219 21.0625 27.238281 19.394531 27.082031 17.433594 C 27.03125 16.785156 26.941406 16.109375 26.65625 15.535156 C 26.523438 15.269531 26.335938 14.996094 26.0625 14.675781 C 25.023438 13.460938 23.101562 12.007812 21.332031 11.695312 C 19.851562 11.433594 18.171875 11.136719 16.671875 11.605469 Z M 16.546875 11.21875 L 16.554688 11.21875 Z M 16.546875 11.21875 "/>
</g>
</svg>
