<?xml version="1.0" encoding="UTF-8"?>
<svg xmlns="http://www.w3.org/2000/svg" xmlns:xlink="http://www.w3.org/1999/xlink" width="39px" height="px" viewBox="0 0 39 39" version="1.1">
<g id="surface1">
<path style=" stroke:none;fill-rule:nonzero;fill:rgb(99.607843%,74.901961%,6.27451%);fill-opacity:1;" d="M 4.953125 11.371094 L 27.351562 11.371094 L 27.351562 28.511719 L 4.953125 28.511719 Z M 4.953125 11.371094 "/>
<path style=" stroke:none;fill-rule:nonzero;fill:rgb(83.921569%,89.803922%,89.803922%);fill-opacity:1;" d="M 5.46875 21.496094 C 4.964844 22.136719 4.785156 23.109375 5.140625 23.863281 C 5.285156 24.175781 5.523438 24.421875 5.796875 24.625 L 5.796875 21.136719 C 5.683594 21.25 5.566406 21.367188 5.46875 21.496094 Z M 7.746094 20.246094 C 7.472656 20.308594 7.207031 20.382812 6.9375 20.484375 L 6.9375 25.28125 C 6.945312 25.28125 6.953125 25.289062 6.953125 25.289062 C 6.976562 25.28125 7.007812 25.28125 7.039062 25.28125 C 7.410156 25.28125 7.785156 25.28125 8.15625 25.28125 L 8.15625 20.15625 C 8.019531 20.179688 7.882812 20.207031 7.746094 20.246094 Z M 9.925781 19.273438 C 9.710938 19.5 9.476562 19.667969 9.230469 19.789062 L 9.230469 25.265625 C 9.742188 25.265625 10.246094 25.257812 10.753906 25.25 L 10.753906 18.097656 C 10.503906 18.523438 10.246094 18.929688 9.925781 19.273438 Z M 11.8125 16.5 L 11.8125 25.25 C 12.292969 25.242188 12.78125 25.234375 13.261719 25.226562 L 13.261719 15.425781 C 12.71875 15.691406 12.234375 16.027344 11.8125 16.5 Z M 14.257812 15.019531 C 14.257812 15.019531 14.25 15.019531 14.257812 15.019531 L 14.25 25.207031 C 14.6875 25.199219 15.113281 25.191406 15.546875 25.183594 L 15.546875 14.738281 C 15.121094 14.785156 14.695312 14.875 14.257812 15.019531 Z M 17.421875 14.785156 C 17.222656 14.753906 17.03125 14.730469 16.839844 14.714844 L 16.839844 25.152344 C 17.449219 25.136719 18.058594 25.128906 18.667969 25.113281 L 18.667969 14.90625 C 18.265625 14.898438 17.855469 14.851562 17.421875 14.785156 Z M 20.519531 14.640625 C 20.046875 14.808594 19.589844 14.882812 19.132812 14.90625 L 19.132812 25.113281 C 19.882812 25.097656 20.621094 25.082031 21.367188 25.0625 C 21.433594 25.0625 21.503906 25.054688 21.570312 25.054688 L 21.570312 14.191406 C 21.222656 14.351562 20.878906 14.511719 20.519531 14.640625 Z M 34.566406 20.734375 C 33.789062 19.597656 32.136719 19.316406 30.863281 19.484375 C 30.660156 19.515625 30.40625 19.316406 30.414062 19.097656 C 30.476562 17.09375 29.441406 15.242188 27.671875 14.273438 C 26.578125 13.671875 25.28125 13.367188 24.023438 13.46875 C 23.363281 13.519531 22.738281 13.679688 22.121094 13.9375 C 21.984375 14 21.847656 14.0625 21.710938 14.121094 L 21.710938 25.046875 C 22.8125 25.007812 23.917969 24.929688 25.023438 24.878906 C 26.195312 24.816406 27.382812 24.695312 28.558594 24.710938 C 30.035156 24.726562 31.671875 24.886719 33.058594 24.277344 C 34.269531 23.75 35.425781 22 34.566406 20.734375 Z M 34.566406 20.734375 "/>
<path style=" stroke:none;fill-rule:nonzero;fill:rgb(99.607843%,74.901961%,6.27451%);fill-opacity:1;" d="M 36.507812 13.46875 C 35.28125 9.917969 32.953125 6.832031 29.554688 5.117188 C 25.675781 3.160156 21.101562 2.976562 16.878906 3.648438 C 13.085938 4.25 9.085938 5.621094 6.246094 8.304688 C 4.753906 9.710938 3.601562 11.417969 2.992188 13.390625 C 2.382812 15.371094 2.203125 17.4375 2.070312 19.492188 C 2.0625 19.578125 2.042969 19.644531 1.996094 19.699219 C 1.996094 19.714844 2.003906 19.734375 2.003906 19.757812 C 2.003906 23.789062 1.917969 28.007812 4.296875 31.480469 C 6.222656 34.308594 9.210938 36.167969 12.460938 37.097656 C 19.164062 39.015625 27.253906 37.828125 32.640625 33.226562 C 38.292969 28.40625 38.808594 20.101562 36.507812 13.46875 Z M 33.585938 24.953125 C 32.191406 25.640625 30.550781 25.578125 29.042969 25.546875 C 27.96875 25.53125 26.894531 25.625 25.820312 25.675781 C 24.601562 25.738281 23.382812 25.800781 22.171875 25.859375 C 19.667969 25.988281 17.144531 25.988281 14.640625 26.035156 C 12.125 26.082031 9.613281 26.113281 7.097656 26.113281 C 7.054688 26.113281 7.007812 26.105469 6.96875 26.097656 C 6.878906 26.132812 6.773438 26.125 6.648438 26.074219 C 5.558594 25.53125 4.378906 24.878906 4.175781 23.550781 C 3.976562 22.28125 4.457031 21.078125 5.492188 20.308594 C 6.046875 19.894531 6.6875 19.621094 7.359375 19.46875 C 7.890625 19.347656 8.539062 19.300781 8.996094 18.964844 C 9.558594 18.5625 9.878906 17.832031 10.238281 17.261719 C 10.625 16.636719 11.039062 16.003906 11.585938 15.507812 C 13.117188 14.113281 15.449219 13.648438 17.441406 13.9375 C 18 14.015625 18.5625 14.128906 19.125 14.085938 C 19.636719 14.046875 20.109375 13.902344 20.574219 13.703125 C 21.585938 13.269531 22.546875 12.765625 23.667969 12.652344 C 25.664062 12.445312 27.808594 13.03125 29.296875 14.417969 C 30.476562 15.523438 31.183594 17 31.246094 18.601562 C 32.746094 18.523438 34.597656 19.019531 35.335938 20.382812 C 36.242188 22.058594 35.183594 24.167969 33.585938 24.953125 Z M 33.585938 24.953125 "/>
<path style=" stroke:none;fill-rule:nonzero;fill:rgb(0%,0%,0%);fill-opacity:1;" d="M 37.554688 13.992188 C 36.472656 10.421875 34.4375 7.265625 31.304688 5.179688 C 27.773438 2.816406 23.285156 2.253906 19.132812 2.558594 C 15.195312 2.847656 11.167969 3.921875 7.816406 6.0625 C 6.171875 7.113281 4.699219 8.492188 3.625 10.132812 C 2.492188 11.859375 1.910156 13.847656 1.597656 15.875 C 1.425781 17.023438 1.339844 18.183594 1.265625 19.347656 C 1.257812 19.417969 1.273438 19.484375 1.292969 19.546875 C 1.226562 19.613281 1.179688 19.714844 1.179688 19.835938 C 1.179688 22.128906 1.136719 24.4375 1.53125 26.707031 C 1.898438 28.769531 2.6875 30.734375 3.9375 32.425781 C 6.164062 35.433594 9.535156 37.25 13.109375 38.140625 C 19.882812 39.832031 27.902344 38.421875 33.257812 33.789062 C 38.902344 28.90625 39.59375 20.765625 37.554688 13.992188 Z M 32.648438 33.226562 C 27.253906 37.828125 19.171875 39.015625 12.46875 37.09375 C 9.21875 36.167969 6.230469 34.308594 4.304688 31.480469 C 1.933594 28.007812 2.011719 23.789062 2.011719 19.757812 C 2.011719 19.734375 2.011719 19.722656 2.003906 19.699219 C 2.042969 19.644531 2.070312 19.574219 2.078125 19.492188 C 2.210938 17.4375 2.390625 15.371094 3 13.390625 C 3.601562 11.417969 4.761719 9.710938 6.253906 8.300781 C 9.09375 5.621094 13.09375 4.25 16.886719 3.648438 C 21.113281 2.976562 25.683594 3.160156 29.5625 5.117188 C 32.960938 6.832031 35.28125 9.925781 36.515625 13.46875 C 38.808594 20.101562 38.292969 28.40625 32.648438 33.226562 Z M 32.648438 33.226562 "/>
<path style=" stroke:none;fill-rule:nonzero;fill:rgb(0%,0%,0%);fill-opacity:1;" d="M 7.367188 19.476562 C 7.222656 19.507812 7.085938 19.546875 6.945312 19.589844 L 6.945312 20.484375 C 7.207031 20.382812 7.480469 20.308594 7.753906 20.246094 C 7.890625 20.214844 8.035156 20.183594 8.164062 20.15625 L 8.164062 19.324219 C 7.890625 19.378906 7.617188 19.417969 7.367188 19.476562 Z M 10.246094 17.269531 C 9.941406 17.761719 9.660156 18.371094 9.222656 18.785156 L 9.222656 19.789062 C 9.476562 19.660156 9.703125 19.5 9.917969 19.273438 C 10.238281 18.929688 10.496094 18.515625 10.746094 18.105469 L 10.746094 16.5 C 10.574219 16.75 10.40625 17.007812 10.246094 17.269531 Z M 9.222656 25.273438 L 9.222656 26.113281 C 9.734375 26.113281 10.238281 26.105469 10.746094 26.097656 L 10.746094 25.257812 C 10.246094 25.265625 9.734375 25.265625 9.222656 25.273438 Z M 11.8125 15.324219 L 11.8125 16.5 C 12.234375 16.035156 12.71875 15.691406 13.261719 15.425781 L 13.261719 14.464844 C 12.742188 14.6875 12.25 14.96875 11.8125 15.324219 Z M 14.25 25.207031 L 14.25 26.042969 C 14.382812 26.042969 14.511719 26.042969 14.640625 26.035156 C 14.945312 26.027344 15.242188 26.027344 15.546875 26.019531 L 15.546875 25.183594 C 15.121094 25.191406 14.6875 25.199219 14.25 25.207031 Z M 14.25 14.121094 L 14.25 15.019531 C 14.25 15.019531 14.25 15.019531 14.257812 15.019531 C 14.695312 14.875 15.121094 14.785156 15.546875 14.738281 L 15.546875 13.902344 C 15.113281 13.9375 14.679688 14.015625 14.25 14.121094 Z M 17.449219 13.945312 C 17.253906 13.917969 17.046875 13.894531 16.839844 13.886719 L 16.839844 14.722656 C 17.03125 14.738281 17.222656 14.761719 17.421875 14.792969 C 17.847656 14.851562 18.257812 14.898438 18.667969 14.914062 L 18.667969 14.105469 C 18.265625 14.078125 17.855469 14.007812 17.449219 13.945312 Z M 16.839844 25.160156 L 16.839844 26.003906 C 17.449219 25.996094 18.058594 25.988281 18.667969 25.976562 L 18.667969 25.113281 C 18.058594 25.128906 17.449219 25.144531 16.839844 25.160156 Z M 20.589844 13.710938 C 20.125 13.910156 19.644531 14.054688 19.140625 14.09375 C 19.140625 14.09375 19.132812 14.09375 19.132812 14.09375 L 19.132812 14.898438 C 19.589844 14.875 20.054688 14.800781 20.519531 14.632812 C 20.878906 14.503906 21.222656 14.34375 21.570312 14.183594 L 21.570312 13.277344 C 21.238281 13.421875 20.917969 13.574219 20.589844 13.710938 Z M 21.359375 25.0625 C 20.613281 25.074219 19.875 25.097656 19.125 25.113281 L 19.125 25.976562 C 19.941406 25.960938 20.75 25.9375 21.5625 25.898438 L 21.5625 25.0625 C 21.496094 25.054688 21.425781 25.054688 21.359375 25.0625 Z M 35.34375 20.398438 C 34.605469 19.027344 32.753906 18.539062 31.253906 18.617188 C 31.191406 17.015625 30.484375 15.53125 29.304688 14.433594 C 27.816406 13.046875 25.671875 12.460938 23.675781 12.667969 C 22.980469 12.734375 22.339844 12.964844 21.714844 13.222656 L 21.714844 14.128906 C 21.855469 14.070312 21.992188 14.007812 22.128906 13.945312 C 22.738281 13.6875 23.371094 13.527344 24.03125 13.476562 C 25.28125 13.375 26.582031 13.679688 27.679688 14.28125 C 29.449219 15.257812 30.484375 17.101562 30.421875 19.105469 C 30.414062 19.324219 30.667969 19.515625 30.871094 19.492188 C 32.144531 19.324219 33.796875 19.605469 34.574219 20.742188 C 35.433594 22.007812 34.277344 23.75 33.074219 24.277344 C 31.679688 24.886719 30.050781 24.726562 28.570312 24.710938 C 27.398438 24.703125 26.210938 24.824219 25.039062 24.878906 C 23.933594 24.929688 22.828125 25.007812 21.722656 25.046875 L 21.722656 25.882812 C 21.875 25.875 22.027344 25.867188 22.179688 25.859375 C 23.398438 25.800781 24.617188 25.738281 25.828125 25.675781 C 26.902344 25.625 27.976562 25.53125 29.050781 25.546875 C 30.558594 25.570312 32.199219 25.640625 33.589844 24.953125 C 35.183594 24.167969 36.242188 22.058594 35.34375 20.398438 Z M 11.8125 25.242188 L 11.8125 26.082031 C 12.292969 26.074219 12.78125 26.066406 13.261719 26.058594 L 13.261719 25.21875 C 12.78125 25.226562 12.300781 25.234375 11.8125 25.242188 Z M 7.039062 25.28125 C 7.007812 25.28125 6.984375 25.28125 6.953125 25.289062 C 6.945312 25.289062 6.9375 25.28125 6.9375 25.28125 L 6.9375 26.113281 C 6.945312 26.113281 6.960938 26.105469 6.96875 26.105469 C 7.007812 26.121094 7.054688 26.121094 7.097656 26.121094 C 7.449219 26.121094 7.800781 26.121094 8.15625 26.121094 L 8.15625 25.28125 C 7.785156 25.273438 7.410156 25.28125 7.039062 25.28125 Z M 5.796875 21.136719 L 5.796875 20.109375 C 5.699219 20.171875 5.597656 20.238281 5.5 20.308594 C 4.457031 21.078125 3.976562 22.28125 4.183594 23.550781 C 4.335938 24.527344 5.019531 25.136719 5.804688 25.609375 L 5.804688 24.625 C 5.53125 24.421875 5.292969 24.175781 5.148438 23.863281 C 4.792969 23.101562 4.972656 22.136719 5.476562 21.496094 C 5.566406 21.367188 5.683594 21.246094 5.796875 21.136719 Z M 5.796875 21.136719 "/>
</g>
</svg>
