<?xml version="1.0" encoding="UTF-8"?>
<svg xmlns="http://www.w3.org/2000/svg" xmlns:xlink="http://www.w3.org/1999/xlink" width="39px" height="px" viewBox="0 0 39 39" version="1.1">
<g id="surface1">
<path style=" stroke:none;fill-rule:nonzero;fill:rgb(44.313725%,77.254902%,59.607843%);fill-opacity:1;" d="M 21.054688 2.910156 C 16.863281 3.011719 15.0625 3.59375 12.207031 4.546875 C 11.082031 4.921875 10.414062 5.492188 9.429688 6.152344 C 8.261719 6.9375 6.839844 8.519531 6.042969 9.679688 C 2.664062 14.617188 1.996094 21.359375 4.597656 26.742188 C 6.125 29.902344 8.6875 32.589844 11.871094 34.058594 C 15.101562 35.550781 18.027344 36.265625 21.5625 35.875 C 24.96875 35.496094 25.582031 35.164062 28.136719 33.605469 C 28.839844 33.171875 30.148438 32.152344 30.6875 31.527344 C 31.339844 30.765625 33.035156 29.011719 33.574219 28.167969 C 35.464844 25.1875 36.023438 22.976562 35.988281 18.402344 C 35.976562 16.957031 35.5625 15.242188 35.097656 13.875 C 34.152344 11.085938 33.234375 9.019531 30.867188 7.273438 C 28.257812 5.34375 26.671875 3.554688 21.035156 2.90625 "/>
<path style=" stroke:none;fill-rule:nonzero;fill:rgb(0.392157%,0.392157%,0.392157%);fill-opacity:1;" d="M 19.671875 36.386719 C 17.078125 36.386719 14.597656 35.765625 11.699219 34.429688 C 8.515625 32.957031 5.863281 30.292969 4.234375 26.921875 C 1.597656 21.46875 2.175781 14.613281 5.707031 9.453125 C 6.519531 8.265625 7.980469 6.636719 9.203125 5.816406 C 9.394531 5.6875 9.574219 5.5625 9.746094 5.441406 C 10.484375 4.925781 11.121094 4.484375 12.082031 4.164062 C 14.859375 3.234375 16.703125 2.621094 20.945312 2.507812 C 20.988281 2.5 21.035156 2.496094 21.082031 2.5 C 26.085938 3.078125 27.957031 4.523438 30.121094 6.195312 C 30.441406 6.441406 30.765625 6.691406 31.109375 6.945312 C 33.660156 8.832031 34.597656 11.140625 35.484375 13.746094 C 35.816406 14.734375 36.378906 16.652344 36.394531 18.398438 C 36.429688 23.003906 35.851562 25.339844 33.917969 28.382812 C 33.519531 29.011719 32.550781 30.074219 31.773438 30.925781 C 31.460938 31.269531 31.183594 31.570312 30.996094 31.792969 C 30.402344 32.484375 29.03125 33.535156 28.347656 33.949219 C 25.742188 35.542969 25.070312 35.894531 21.605469 36.277344 C 20.949219 36.351562 20.308594 36.386719 19.671875 36.386719 Z M 21.070312 3.316406 C 21.066406 3.316406 21.066406 3.316406 21.0625 3.316406 C 16.875 3.417969 15.070312 4.023438 12.335938 4.933594 C 11.488281 5.214844 10.925781 5.609375 10.210938 6.105469 C 10.035156 6.230469 9.851562 6.359375 9.65625 6.488281 C 8.519531 7.253906 7.148438 8.789062 6.378906 9.910156 C 3.007812 14.835938 2.453125 21.371094 4.964844 26.566406 C 6.511719 29.769531 9.027344 32.300781 12.039062 33.691406 C 15.503906 35.292969 18.339844 35.824219 21.515625 35.46875 C 24.816406 35.105469 25.398438 34.800781 27.925781 33.257812 C 28.632812 32.824219 29.886719 31.835938 30.378906 31.261719 C 30.570312 31.039062 30.855469 30.726562 31.171875 30.378906 C 31.890625 29.59375 32.871094 28.515625 33.230469 27.949219 C 35.085938 25.023438 35.617188 22.882812 35.582031 18.40625 C 35.570312 17.210938 35.257812 15.609375 34.714844 14.007812 C 33.84375 11.445312 32.992188 9.347656 30.628906 7.597656 C 30.28125 7.339844 29.949219 7.085938 29.625 6.835938 C 27.566406 5.25 25.789062 3.875 21.070312 3.316406 Z M 21.070312 3.316406 "/>
<path style=" stroke:none;fill-rule:nonzero;fill:rgb(83.921569%,89.803922%,89.803922%);fill-opacity:1;" d="M 18.628906 22.617188 C 16.421875 22.507812 16.726562 22.566406 14.429688 22.773438 C 13.644531 22.847656 12.832031 22.980469 12.050781 23.078125 C 11.523438 23.140625 10.972656 23.21875 10.550781 23.539062 C 10.128906 23.859375 9.910156 24.507812 10.230469 24.929688 C 10.523438 25.320312 11.097656 25.375 11.582031 25.3125 C 14.769531 24.882812 16.058594 24.757812 18.898438 24.792969 C 20.136719 24.808594 22.558594 25.417969 23.679688 25.945312 C 24.4375 26.304688 25.898438 27.011719 26.328125 27.160156 C 26.894531 27.355469 27.304688 26.835938 27.4375 26.398438 C 27.558594 26 27.175781 25.597656 26.917969 25.382812 C 24.953125 23.738281 21.191406 22.832031 18.640625 22.613281 "/>
<path style=" stroke:none;fill-rule:nonzero;fill:rgb(83.921569%,89.803922%,89.803922%);fill-opacity:1;" d="M 19.882812 19.929688 C 18.71875 19.597656 17.796875 19.695312 16.792969 19.71875 C 16.257812 19.730469 14.683594 19.863281 14.160156 19.964844 C 12.894531 20.21875 12.539062 20.308594 11.269531 20.5625 C 10.976562 20.621094 10.679688 20.679688 10.382812 20.640625 C 9.898438 20.578125 9.460938 20.246094 9.273438 19.792969 C 9.210938 19.640625 9.175781 19.46875 9.226562 19.3125 C 9.289062 19.105469 9.285156 18.621094 9.945312 18.375 C 12.53125 17.410156 13.835938 17.460938 16.050781 17.296875 C 18.890625 17.089844 20.484375 17.617188 22.660156 18.050781 C 24.082031 18.332031 25.574219 18.945312 26.933594 19.453125 C 27.972656 19.84375 28.890625 20.171875 29.101562 21.113281 C 29.167969 21.414062 29.082031 21.980469 28.878906 22.207031 C 28.734375 22.367188 28.605469 22.550781 28.394531 22.585938 C 27.71875 22.695312 27.09375 22.269531 26.457031 22.019531 C 26.023438 21.847656 25.269531 21.570312 24.832031 21.40625 C 23.433594 20.867188 22.296875 20.445312 19.847656 19.925781 "/>
<path style=" stroke:none;fill-rule:nonzero;fill:rgb(83.921569%,89.803922%,89.803922%);fill-opacity:1;" d="M 20.015625 14.742188 C 16.976562 14.277344 13.820312 14.613281 10.835938 15.351562 C 10.464844 15.441406 10.09375 15.539062 9.714844 15.53125 C 9.339844 15.519531 8.941406 15.382812 8.714844 15.078125 C 8.519531 14.820312 8.371094 14.597656 8.332031 14.277344 C 8.300781 14.03125 8.378906 13.65625 8.488281 13.433594 C 8.578125 13.257812 8.742188 13.136719 8.910156 13.027344 C 9.765625 12.460938 10.777344 12.128906 11.800781 12.074219 C 12.410156 12.042969 13.085938 11.804688 13.691406 11.75 C 14.242188 11.699219 15.863281 11.523438 16.417969 11.546875 C 19.410156 11.667969 19.1875 11.421875 22.183594 11.796875 C 22.679688 11.859375 23.585938 12.101562 24.074219 12.199219 C 24.9375 12.367188 25.222656 12.421875 26.050781 12.714844 C 26.859375 13.003906 27.308594 13.070312 27.742188 13.273438 C 28.230469 13.5 28.941406 13.757812 29.414062 14.019531 C 30.527344 14.625 30.691406 14.582031 31.363281 15.304688 C 31.953125 15.933594 31.566406 16.921875 31.25 17.226562 C 31.070312 17.398438 30.90625 17.46875 30.667969 17.542969 C 29.855469 17.800781 28.984375 17.480469 28.207031 17.140625 C 26.378906 16.347656 24.566406 15.421875 22.59375 15.152344 C 21.808594 15.046875 21.1875 14.882812 20.035156 14.742188 "/>
<path style=" stroke:none;fill-rule:nonzero;fill:rgb(0.392157%,0.392157%,0.392157%);fill-opacity:1;" d="M 26.570312 27.609375 C 26.449219 27.609375 26.324219 27.585938 26.199219 27.542969 C 25.828125 27.417969 24.820312 26.9375 24.011719 26.554688 L 23.507812 26.3125 C 22.386719 25.785156 20.015625 25.214844 18.890625 25.199219 C 16.148438 25.164062 14.878906 25.277344 11.636719 25.710938 C 10.875 25.816406 10.242188 25.621094 9.90625 25.175781 C 9.714844 24.925781 9.636719 24.605469 9.683594 24.269531 C 9.738281 23.863281 9.972656 23.46875 10.304688 23.214844 C 10.828125 22.820312 11.476562 22.738281 12 22.675781 C 12.277344 22.640625 12.558594 22.601562 12.84375 22.5625 C 13.363281 22.488281 13.882812 22.417969 14.394531 22.371094 C 14.886719 22.324219 15.257812 22.289062 15.5625 22.257812 C 16.671875 22.144531 16.882812 22.125 18.59375 22.210938 C 18.621094 22.207031 18.648438 22.207031 18.671875 22.207031 C 21.492188 22.445312 25.210938 23.421875 27.179688 25.070312 C 27.738281 25.535156 27.96875 26.050781 27.828125 26.515625 C 27.699219 26.945312 27.414062 27.308594 27.070312 27.484375 C 26.910156 27.566406 26.742188 27.609375 26.570312 27.609375 Z M 18.015625 24.378906 C 18.292969 24.378906 18.589844 24.382812 18.902344 24.386719 C 20.242188 24.402344 22.742188 25.054688 23.851562 25.578125 L 24.359375 25.820312 C 25.109375 26.175781 26.136719 26.664062 26.460938 26.773438 C 26.546875 26.804688 26.621094 26.800781 26.699219 26.761719 C 26.84375 26.6875 26.984375 26.496094 27.050781 26.28125 C 27.085938 26.160156 26.925781 25.917969 26.660156 25.691406 C 24.851562 24.179688 21.261719 23.253906 18.664062 23.023438 C 18.644531 23.023438 18.628906 23.027344 18.609375 23.023438 C 16.90625 22.9375 16.738281 22.953125 15.644531 23.066406 C 15.335938 23.097656 14.964844 23.136719 14.464844 23.179688 C 13.96875 23.222656 13.460938 23.296875 12.957031 23.367188 C 12.667969 23.40625 12.382812 23.445312 12.101562 23.480469 C 11.652344 23.535156 11.144531 23.597656 10.796875 23.863281 C 10.636719 23.984375 10.515625 24.1875 10.488281 24.382812 C 10.472656 24.503906 10.492188 24.605469 10.554688 24.683594 C 10.78125 24.980469 11.355469 24.929688 11.53125 24.90625 C 14.449219 24.515625 15.792969 24.378906 18.015625 24.378906 Z M 18.015625 24.378906 "/>
<path style=" stroke:none;fill-rule:nonzero;fill:rgb(0.392157%,0.392157%,0.392157%);fill-opacity:1;" d="M 28.167969 23.007812 C 27.648438 23.007812 27.175781 22.789062 26.75 22.589844 C 26.601562 22.523438 26.457031 22.453125 26.308594 22.394531 C 26.050781 22.296875 25.679688 22.15625 25.332031 22.027344 L 24.6875 21.785156 C 23.382812 21.285156 22.257812 20.851562 19.761719 20.324219 C 19.726562 20.316406 19.691406 20.304688 19.65625 20.285156 C 18.78125 20.058594 18.042969 20.082031 17.261719 20.109375 L 16.800781 20.121094 C 16.273438 20.132812 14.730469 20.265625 14.242188 20.363281 C 13.617188 20.488281 13.214844 20.574219 12.816406 20.65625 C 12.40625 20.742188 11.996094 20.828125 11.351562 20.957031 C 11.046875 21.019531 10.699219 21.089844 10.332031 21.042969 C 9.703125 20.964844 9.140625 20.535156 8.898438 19.949219 C 8.789062 19.675781 8.765625 19.417969 8.839844 19.1875 C 8.917969 18.839844 9.039062 18.277344 9.804688 17.992188 C 12.082031 17.144531 13.429688 17.058594 15.132812 16.953125 C 15.417969 16.933594 15.710938 16.914062 16.023438 16.890625 C 18.410156 16.71875 19.964844 17.054688 21.613281 17.414062 C 21.976562 17.492188 22.351562 17.574219 22.742188 17.652344 C 23.984375 17.898438 25.242188 18.375 26.457031 18.839844 L 27.078125 19.074219 C 28.175781 19.484375 29.242188 19.886719 29.496094 21.023438 C 29.589844 21.4375 29.484375 22.136719 29.179688 22.476562 C 28.988281 22.699219 28.789062 22.929688 28.460938 22.984375 C 28.363281 23 28.265625 23.007812 28.167969 23.007812 Z M 20.042969 19.554688 C 22.523438 20.085938 23.664062 20.519531 24.980469 21.027344 L 25.617188 21.265625 C 25.972656 21.398438 26.34375 21.539062 26.605469 21.640625 C 26.769531 21.703125 26.929688 21.78125 27.09375 21.855469 C 27.527344 22.058594 27.941406 22.246094 28.328125 22.183594 C 28.367188 22.175781 28.457031 22.074219 28.515625 22.003906 L 28.574219 21.9375 C 28.664062 21.835938 28.753906 21.417969 28.703125 21.203125 C 28.554688 20.527344 27.902344 20.253906 26.855469 19.859375 L 26.167969 19.601562 C 24.984375 19.148438 23.757812 18.683594 22.582031 18.449219 C 22.1875 18.371094 21.8125 18.289062 21.441406 18.210938 C 19.785156 17.851562 18.351562 17.539062 16.082031 17.707031 C 15.765625 17.726562 15.46875 17.746094 15.183594 17.765625 C 13.480469 17.871094 12.25 17.949219 10.085938 18.757812 C 9.738281 18.886719 9.699219 19.070312 9.652344 19.28125 C 9.640625 19.339844 9.628906 19.390625 9.613281 19.433594 C 9.609375 19.449219 9.597656 19.511719 9.648438 19.640625 C 9.78125 19.957031 10.09375 20.195312 10.433594 20.238281 C 10.664062 20.265625 10.933594 20.214844 11.191406 20.164062 C 11.832031 20.035156 12.238281 19.949219 12.648438 19.863281 C 13.050781 19.777344 13.453125 19.695312 14.082031 19.566406 C 14.625 19.460938 16.230469 19.324219 16.78125 19.3125 L 17.230469 19.296875 C 18.074219 19.269531 18.945312 19.242188 19.992188 19.539062 C 20.007812 19.542969 20.027344 19.546875 20.042969 19.554688 Z M 20.042969 19.554688 "/>
<path style=" stroke:none;fill-rule:nonzero;fill:rgb(0.392157%,0.392157%,0.392157%);fill-opacity:1;" d="M 30.039062 18.042969 C 29.34375 18.042969 28.65625 17.777344 28.046875 17.515625 C 27.75 17.386719 27.457031 17.257812 27.164062 17.125 C 25.679688 16.460938 24.140625 15.773438 22.542969 15.558594 C 22.203125 15.511719 21.898438 15.457031 21.566406 15.394531 C 21.132812 15.316406 20.660156 15.230469 20.011719 15.148438 C 19.992188 15.148438 19.972656 15.148438 19.953125 15.144531 C 17.257812 14.730469 14.222656 14.933594 10.933594 15.746094 L 10.847656 15.765625 C 10.484375 15.855469 10.113281 15.953125 9.707031 15.9375 C 9.152344 15.921875 8.675781 15.699219 8.390625 15.324219 C 8.167969 15.027344 7.980469 14.742188 7.929688 14.324219 C 7.894531 14.015625 7.980469 13.554688 8.128906 13.253906 C 8.261719 12.992188 8.484375 12.820312 8.6875 12.6875 C 9.609375 12.078125 10.679688 11.726562 11.785156 11.671875 C 12.074219 11.65625 12.394531 11.585938 12.730469 11.511719 C 13.035156 11.445312 13.347656 11.375 13.65625 11.347656 L 14.019531 11.3125 C 14.996094 11.214844 15.988281 11.125 16.4375 11.140625 C 17.5625 11.1875 18.242188 11.179688 18.785156 11.175781 C 19.730469 11.167969 20.351562 11.160156 22.238281 11.394531 C 22.570312 11.4375 23.066406 11.554688 23.503906 11.65625 C 23.75 11.710938 23.980469 11.765625 24.15625 11.800781 C 25.03125 11.96875 25.347656 12.03125 26.191406 12.332031 C 26.550781 12.460938 26.839844 12.546875 27.082031 12.617188 C 27.390625 12.707031 27.652344 12.78125 27.917969 12.90625 C 28.097656 12.988281 28.308594 13.078125 28.527344 13.167969 C 28.910156 13.328125 29.300781 13.492188 29.613281 13.664062 C 29.886719 13.808594 30.101562 13.917969 30.277344 14.011719 C 30.851562 14.300781 31.109375 14.433594 31.667969 15.027344 C 32.433594 15.847656 31.988281 17.085938 31.535156 17.519531 C 31.304688 17.738281 31.085938 17.835938 30.792969 17.929688 C 30.542969 18.011719 30.289062 18.042969 30.039062 18.042969 Z M 20.046875 14.335938 C 20.058594 14.335938 20.070312 14.335938 20.085938 14.339844 C 20.761719 14.421875 21.261719 14.511719 21.710938 14.59375 C 22.03125 14.652344 22.324219 14.707031 22.648438 14.75 C 24.363281 14.984375 25.957031 15.695312 27.496094 16.382812 C 27.785156 16.511719 28.078125 16.640625 28.367188 16.769531 C 29.0625 17.070312 29.863281 17.371094 30.542969 17.15625 C 30.746094 17.09375 30.847656 17.046875 30.96875 16.933594 C 31.15625 16.753906 31.476562 16.015625 31.070312 15.582031 C 30.613281 15.09375 30.449219 15.011719 29.90625 14.734375 C 29.722656 14.640625 29.5 14.527344 29.222656 14.378906 C 28.945312 14.226562 28.570312 14.070312 28.210938 13.917969 C 27.984375 13.824219 27.761719 13.730469 27.570312 13.644531 C 27.363281 13.546875 27.136719 13.480469 26.851562 13.398438 C 26.59375 13.324219 26.292969 13.234375 25.914062 13.101562 C 25.125 12.816406 24.847656 12.765625 24.027344 12.605469 C 23.8125 12.5625 23.574219 12.507812 23.316406 12.449219 C 22.898438 12.351562 22.425781 12.242188 22.132812 12.203125 C 20.300781 11.976562 19.699219 11.980469 18.792969 11.988281 C 18.238281 11.992188 17.546875 12 16.402344 11.953125 C 15.972656 11.929688 14.753906 12.054688 14.097656 12.121094 L 13.730469 12.15625 C 13.472656 12.179688 13.195312 12.242188 12.902344 12.304688 C 12.550781 12.382812 12.183594 12.464844 11.824219 12.484375 C 10.867188 12.53125 9.933594 12.839844 9.132812 13.367188 C 9.019531 13.441406 8.898438 13.53125 8.851562 13.621094 C 8.773438 13.777344 8.714844 14.074219 8.734375 14.230469 C 8.757812 14.433594 8.847656 14.582031 9.039062 14.839844 C 9.167969 15.011719 9.425781 15.121094 9.726562 15.128906 C 10.023438 15.148438 10.328125 15.058594 10.652344 14.980469 L 10.734375 14.957031 C 14.121094 14.121094 17.253906 13.914062 20.046875 14.335938 Z M 20.046875 14.335938 "/>
</g>
</svg>
