<?xml version="1.0" encoding="UTF-8"?>
<svg xmlns="http://www.w3.org/2000/svg" xmlns:xlink="http://www.w3.org/1999/xlink" width="39px" height="px" viewBox="0 0 39 39" version="1.1">
<g id="surface1">
<path style=" stroke:none;fill-rule:nonzero;fill:rgb(45.490196%,80%,81.176471%);fill-opacity:1;" d="M 36.5625 19.5 C 36.5625 28.921875 28.921875 36.5625 19.5 36.5625 C 10.078125 36.5625 2.4375 28.921875 2.4375 19.5 C 2.4375 10.078125 10.078125 2.4375 19.5 2.4375 C 28.921875 2.4375 36.5625 10.078125 36.5625 19.5 Z M 36.5625 19.5 "/>
<path style="fill:none;stroke-width:1;stroke-linecap:butt;stroke-linejoin:miter;stroke:rgb(0.392157%,0.392157%,0.392157%);stroke-opacity:1;stroke-miterlimit:10;" d="M 45.052885 24 C 45.052885 27.826923 43.980769 31.413462 42.192308 34.504808 C 40.350962 37.692308 37.889423 40.692308 34.701923 42.538462 C 31.615385 44.322115 27.826923 45.408654 24 45.408654 C 20.173077 45.408654 16.432692 44.245192 13.346154 42.456731 C 10.158654 40.610577 7.495192 37.778846 5.653846 34.591346 C 3.865385 31.504808 3.379808 27.826923 3.379808 24 C 3.379808 20.173077 4.057692 16.605769 5.846154 13.519231 C 7.6875 10.331731 10.211538 7.480769 13.399038 5.634615 C 16.485577 3.850962 20.173077 3.1875 24 3.1875 C 27.826923 3.1875 31.370192 4.096154 34.461538 5.879808 C 37.649038 7.725962 40.004808 10.509615 41.850962 13.697115 C 43.634615 16.783654 45.052885 20.173077 45.052885 24 Z M 45.052885 24 " transform="matrix(0.8125,0,0,0.8125,0,0)"/>
<path style=" stroke:none;fill-rule:nonzero;fill:rgb(83.921569%,89.803922%,89.803922%);fill-opacity:1;" d="M 14.371094 21.785156 C 14.773438 23.335938 15.257812 24.863281 15.824219 26.359375 C 15.945312 26.683594 16.121094 27.046875 16.457031 27.125 C 16.757812 27.195312 17.046875 27.003906 17.285156 26.8125 C 17.972656 26.265625 18.601562 25.644531 19.148438 24.957031 C 20.0625 25.71875 21.019531 26.425781 21.933594 27.1875 C 22.289062 27.484375 22.652344 27.785156 23.082031 27.953125 C 23.511719 28.117188 24.03125 28.128906 24.410156 27.867188 C 24.671875 27.6875 24.835938 27.402344 24.972656 27.113281 C 25.269531 26.492188 25.488281 25.835938 25.648438 25.167969 C 26.300781 22.480469 26.339844 20.085938 27.539062 17.09375 C 27.921875 16.132812 28.003906 15.070312 28.070312 14.039062 C 28.109375 13.433594 27.628906 12.921875 27.019531 12.894531 C 26.296875 12.867188 25.589844 13.054688 24.894531 13.261719 C 19.914062 14.757812 15.484375 16.710938 11.070312 18.679688 C 10.660156 18.863281 10.21875 19.015625 9.902344 19.332031 C 9.722656 19.511719 9.578125 19.753906 9.605469 20.003906 C 9.652344 20.46875 10.1875 20.683594 10.636719 20.800781 C 11.882812 21.125 13.109375 21.546875 14.371094 21.785156 Z M 14.371094 21.785156 "/>
<path style=" stroke:none;fill-rule:nonzero;fill:rgb(73.72549%,73.72549%,73.72549%);fill-opacity:1;" d="M 16.933594 23 L 16.6875 26.984375 L 19.148438 24.957031 Z M 16.933594 23 "/>
<path style="fill:none;stroke-width:1;stroke-linecap:butt;stroke-linejoin:round;stroke:rgb(0.392157%,0.392157%,0.392157%);stroke-opacity:1;stroke-miterlimit:10;" d="M 20.721154 28.009615 C 21.831731 29.125 22.980769 30.201923 24.177885 31.230769 " transform="matrix(0.8125,0,0,0.8125,0,0)"/>
<path style=" stroke:none;fill-rule:nonzero;fill:rgb(73.72549%,73.72549%,73.72549%);fill-opacity:1;" d="M 14.839844 21.441406 L 24.082031 15.402344 L 24.492188 15.769531 L 17.222656 22.46875 L 16.894531 23.496094 L 16.359375 26.945312 L 14.429688 22.097656 Z M 14.839844 21.441406 "/>
<path style="fill:none;stroke-width:1;stroke-linecap:butt;stroke-linejoin:round;stroke:rgb(0.392157%,0.392157%,0.392157%);stroke-opacity:1;stroke-miterlimit:10;" d="M 17.6875 26.8125 C 18.182692 28.721154 18.778846 30.600962 19.475962 32.442308 C 19.625 32.841346 19.841346 33.288462 20.254808 33.384615 C 20.625 33.471154 20.980769 33.235577 21.274038 33 C 22.120192 32.326923 22.894231 31.5625 23.567308 30.716346 C 24.692308 31.653846 25.870192 32.524038 26.995192 33.461538 C 27.432692 33.826923 27.879808 34.197115 28.408654 34.403846 C 28.9375 34.605769 29.576923 34.620192 30.043269 34.298077 C 30.365385 34.076923 30.567308 33.725962 30.735577 33.370192 C 31.100962 32.605769 31.370192 31.798077 31.567308 30.975962 C 32.370192 27.668269 32.418269 24.721154 33.894231 21.038462 C 34.365385 19.855769 34.466346 18.548077 34.548077 17.278846 C 34.596154 16.533654 34.004808 15.903846 33.254808 15.870192 C 32.365385 15.836538 31.495192 16.067308 30.639423 16.322115 C 24.509615 18.163462 19.057692 20.567308 13.625 22.990385 C 13.120192 23.216346 12.576923 23.403846 12.1875 23.793269 C 11.966346 24.014423 11.788462 24.3125 11.822115 24.620192 C 11.879808 25.192308 12.538462 25.456731 13.091346 25.600962 C 14.625 26 16.134615 26.519231 17.6875 26.8125 Z M 17.6875 26.8125 " transform="matrix(0.8125,0,0,0.8125,0,0)"/>
<path style="fill:none;stroke-width:1;stroke-linecap:butt;stroke-linejoin:round;stroke:rgb(0.392157%,0.392157%,0.392157%);stroke-opacity:1;stroke-miterlimit:10;" d="M 17.6875 26.8125 C 21.048077 24.591346 24.125 22.625 27.480769 20.403846 C 28.177885 19.947115 30.043269 18.653846 30.350962 19.144231 C 30.764423 19.798077 23.971154 25.076923 20.730769 28.024038 C 20.567308 29.75 20.442308 31.480769 20.360577 33.216346 " transform="matrix(0.8125,0,0,0.8125,0,0)"/>
</g>
</svg>
