<?xml version="1.0" encoding="UTF-8"?>
<svg xmlns="http://www.w3.org/2000/svg" xmlns:xlink="http://www.w3.org/1999/xlink" width="39px" height="px" viewBox="0 0 39 39" version="1.1">
<g id="surface1">
<path style=" stroke:none;fill-rule:nonzero;fill:rgb(21.568627%,21.960784%,21.568627%);fill-opacity:1;" d="M 8.28125 35.746094 C 12.34375 35.746094 10.835938 35.878906 14.492188 35.875 C 17.539062 35.871094 18.953125 35.589844 21.136719 35.714844 C 22.949219 35.820312 24.0625 35.777344 25.875 35.816406 C 28.921875 35.878906 33.445312 36.675781 35.203125 34.402344 C 36.3125 32.96875 36.207031 30.511719 36.296875 28.746094 C 36.382812 26.980469 35.988281 24.082031 36.113281 22.320312 C 36.472656 17.378906 35.730469 17.332031 35.914062 12.753906 C 35.980469 11.085938 36.136719 5.765625 35.09375 4.464844 C 34.085938 3.207031 32.46875 2.789062 29.730469 2.824219 C 26.117188 2.871094 23.335938 2.933594 19.722656 2.914062 C 18.34375 2.90625 16.835938 2.835938 15.457031 2.828125 C 14.339844 2.824219 11.777344 3.039062 10.664062 3.054688 C 9.625 3.070312 5.691406 3.410156 4.613281 4.640625 C 2.324219 7.246094 2.871094 13.117188 2.855469 13.550781 C 2.726562 17.753906 3.140625 23.730469 3.132812 25.882812 C 3.117188 28.738281 3.128906 29.988281 3.402344 31.683594 C 3.796875 34.121094 5.101562 35.902344 8.28125 35.746094 "/>
<path style=" stroke:none;fill-rule:nonzero;fill:rgb(92.941176%,28.235294%,54.509804%);fill-opacity:1;" d="M 25.355469 21.582031 C 25.292969 23.605469 25.285156 25.703125 24.734375 27.652344 C 24.183594 29.601562 23.011719 31.472656 21.195312 32.375 C 19.742188 33.09375 17.988281 33.375 16.375 33.203125 C 15.085938 33.070312 14.082031 32.71875 12.945312 32.101562 C 12.207031 31.703125 11.371094 31.105469 10.984375 30.628906 C 10.183594 29.648438 9.414062 28.148438 9.175781 27.320312 C 8.777344 25.941406 8.8125 23.945312 9.082031 23.03125 C 9.265625 22.417969 9.511719 21.285156 10.308594 20.089844 C 10.792969 19.363281 12.152344 18.136719 12.945312 17.761719 C 14.679688 16.941406 15.757812 16.949219 17.671875 16.84375 C 17.785156 18.265625 17.765625 19.925781 17.566406 21.339844 C 16.449219 21.164062 15.347656 21.140625 14.617188 21.9375 C 14.019531 22.59375 13.527344 23.292969 13.335938 24.15625 C 13.042969 25.476562 13.277344 26.882812 14.332031 27.730469 C 14.640625 27.976562 15.019531 28.132812 15.40625 28.230469 C 17.46875 28.75 19.824219 27.445312 20.472656 25.417969 C 20.699219 24.710938 20.738281 23.953125 20.773438 23.210938 C 21.023438 17.816406 21.371094 11.9375 20.972656 7.21875 C 21.917969 7.0625 22.558594 7.117188 23.921875 7.101562 C 24.046875 7.101562 25.949219 7.011719 26.039062 7.097656 C 26.140625 7.195312 26.164062 7.847656 26.203125 8.121094 C 26.644531 11.046875 27.816406 12.894531 30.71875 13.46875 C 30.933594 13.507812 31.273438 13.4375 31.390625 13.617188 C 31.460938 13.726562 31.441406 14.148438 31.449219 14.277344 C 31.542969 15.566406 31.511719 16.46875 31.476562 17.765625 C 30.390625 18.03125 28.953125 17.75 27.945312 17.265625 C 26.933594 16.785156 26.324219 16.339844 25.449219 15.640625 C 25.523438 17.597656 25.398438 19.859375 25.351562 21.582031 "/>
<path style=" stroke:none;fill-rule:nonzero;fill:rgb(8.627451%,71.764706%,72.156863%);fill-opacity:1;" d="M 12.148438 21.785156 C 11.855469 22.296875 11.625 22.679688 11.621094 24.027344 C 11.617188 24.414062 11.820312 25.207031 11.964844 25.566406 C 12.339844 26.480469 12.988281 26.761719 13.898438 27.148438 C 14.753906 27.515625 15.726562 27.488281 16.609375 27.191406 C 17.554688 26.875 18.328125 26.117188 18.777344 25.226562 C 19.070312 24.640625 19.128906 23.964844 19.171875 23.308594 C 19.273438 21.695312 19.3125 20.082031 19.351562 18.464844 C 19.375 17.488281 19.398438 16.515625 19.421875 15.539062 C 19.5 12.320312 18.980469 9.023438 19.058594 5.804688 C 20.410156 5.671875 22.550781 5.160156 23.910156 5.1875 C 23.960938 6.371094 23.902344 7.683594 24.195312 8.601562 C 24.359375 9.101562 24.785156 9.828125 25.160156 10.199219 C 26.664062 11.679688 27.980469 12.011719 29.578125 12.125 C 29.554688 13.714844 29.519531 14.757812 29.496094 16.351562 C 27.589844 16.59375 25.59375 16 24.128906 14.753906 C 23.84375 17.882812 24.464844 22.910156 23.15625 27.074219 C 22.941406 27.761719 22.085938 29.0625 21.617188 29.613281 C 21.273438 30.015625 20.84375 30.335938 20.421875 30.652344 C 19.78125 31.132812 19.125 31.621094 18.371094 31.894531 C 17.488281 32.214844 16.527344 32.246094 15.589844 32.230469 C 13.679688 32.195312 11.914062 31.636719 11.664062 31.507812 C 10.171875 30.734375 9.296875 30.261719 8.375 28.859375 C 8.105469 28.449219 7.898438 28 7.722656 27.542969 C 7.03125 25.742188 6.804688 23.742188 7.238281 21.863281 C 7.675781 19.984375 8.648438 18.152344 10.265625 17.101562 C 11.167969 16.519531 11.824219 15.976562 12.839844 15.625 C 13.921875 15.246094 15.425781 14.605469 16.566406 14.710938 C 16.308594 16.300781 16.285156 18.441406 16.226562 20.050781 C 15.441406 20.058594 14.640625 20.070312 13.894531 20.308594 C 13.144531 20.542969 12.671875 21.003906 12.152344 21.78125 "/>
<path style=" stroke:none;fill-rule:nonzero;fill:rgb(83.921569%,89.803922%,89.803922%);fill-opacity:1;" d="M 26.671875 11.355469 C 26.179688 11.078125 25.679688 10.710938 25.160156 10.199219 C 24.785156 9.832031 24.359375 9.101562 24.199219 8.601562 C 24.03125 8.089844 23.921875 7.621094 23.847656 7.101562 C 22.539062 7.113281 21.902344 7.066406 20.972656 7.21875 C 21.371094 11.9375 21.023438 17.816406 20.773438 23.210938 C 20.738281 23.953125 20.699219 24.707031 20.472656 25.417969 C 19.824219 27.441406 17.46875 28.75 15.40625 28.230469 C 15.019531 28.132812 14.640625 27.976562 14.332031 27.726562 C 14.121094 27.5625 13.960938 27.347656 13.824219 27.117188 C 12.957031 26.746094 12.332031 26.453125 11.96875 25.566406 C 11.820312 25.207031 11.617188 24.414062 11.621094 24.027344 C 11.625 22.679688 11.855469 22.296875 12.148438 21.785156 L 12.152344 21.785156 C 12.671875 21.007812 13.144531 20.546875 13.894531 20.308594 C 14.640625 20.070312 15.441406 20.0625 16.226562 20.054688 C 16.265625 19.003906 16.351562 17.957031 16.472656 16.914062 C 15.261719 17.011719 14.136719 17.199219 12.945312 17.761719 C 12.152344 18.136719 10.792969 19.363281 10.308594 20.089844 C 9.511719 21.285156 9.265625 22.417969 9.082031 23.03125 C 8.8125 23.945312 8.777344 25.941406 9.175781 27.320312 C 9.414062 28.148438 10.1875 29.648438 10.984375 30.628906 C 11.265625 30.976562 11.785156 31.386719 12.332031 31.738281 C 13.066406 31.945312 14.292969 32.210938 15.589844 32.234375 C 16.527344 32.25 17.488281 32.21875 18.371094 31.898438 C 19.125 31.621094 19.78125 31.136719 20.421875 30.652344 C 20.847656 30.335938 21.273438 30.015625 21.617188 29.617188 C 22.085938 29.066406 22.941406 27.765625 23.15625 27.074219 C 24.464844 22.914062 23.84375 17.882812 24.132812 14.753906 C 25.59375 16 27.589844 16.597656 29.496094 16.351562 C 29.515625 15.128906 29.539062 14.230469 29.5625 13.15625 C 28.417969 12.773438 27.425781 12.171875 26.671875 11.355469 Z M 26.671875 11.355469 "/>
<path style=" stroke:none;fill-rule:nonzero;fill:rgb(0.392157%,0.392157%,0.392157%);fill-opacity:1;" d="M 15.957031 32.640625 C 15.832031 32.640625 15.707031 32.640625 15.582031 32.640625 C 13.578125 32.605469 11.761719 32.015625 11.476562 31.871094 C 10.003906 31.105469 9.03125 30.601562 8.035156 29.082031 C 7.777344 28.695312 7.558594 28.25 7.34375 27.691406 C 6.59375 25.738281 6.414062 23.636719 6.84375 21.773438 C 7.371094 19.503906 8.542969 17.640625 10.0625 16.65625 L 10.183594 16.574219 C 11.035156 16.023438 11.839844 15.503906 12.851562 15.152344 L 13.097656 15.066406 C 14.164062 14.691406 15.492188 14.222656 16.636719 14.328125 C 16.75 14.339844 16.851562 14.394531 16.921875 14.484375 C 16.992188 14.570312 17.019531 14.6875 17.003906 14.796875 C 16.769531 16.246094 16.699219 18.164062 16.648438 19.707031 L 16.632812 20.070312 C 16.625 20.285156 16.449219 20.457031 16.230469 20.460938 C 15.484375 20.46875 14.710938 20.476562 14.015625 20.695312 C 13.414062 20.886719 13.003906 21.242188 12.492188 22.011719 C 12.484375 22.019531 12.476562 22.027344 12.472656 22.039062 C 12.214844 22.488281 12.027344 22.832031 12.023438 24.027344 C 12.023438 24.339844 12.203125 25.070312 12.34375 25.410156 C 12.640625 26.144531 13.109375 26.371094 14.054688 26.773438 C 14.769531 27.078125 15.632812 27.089844 16.476562 26.808594 C 17.28125 26.539062 17.984375 25.894531 18.410156 25.042969 C 18.667969 24.539062 18.722656 23.945312 18.765625 23.28125 C 18.867188 21.667969 18.90625 20.035156 18.945312 18.457031 L 19.015625 15.527344 C 19.050781 13.9375 18.929688 12.304688 18.808594 10.726562 C 18.6875 9.128906 18.5625 7.476562 18.601562 5.84375 C 18.605469 5.640625 18.761719 5.46875 18.96875 5.449219 L 19.867188 5.359375 C 21.164062 5.226562 22.78125 5.054688 23.890625 5.078125 C 24.105469 5.082031 24.277344 5.253906 24.285156 5.46875 L 24.308594 6.125 C 24.335938 7.015625 24.359375 7.789062 24.582031 8.476562 C 24.730469 8.933594 25.132812 9.605469 25.445312 9.910156 C 26.835938 11.28125 28.023438 11.613281 29.605469 11.722656 C 29.820312 11.738281 29.984375 11.917969 29.984375 12.132812 C 29.972656 12.929688 29.957031 13.589844 29.941406 14.25 C 29.925781 14.90625 29.914062 15.5625 29.902344 16.359375 C 29.898438 16.5625 29.75 16.730469 29.546875 16.757812 C 27.789062 16.980469 25.949219 16.527344 24.484375 15.535156 C 24.445312 16.355469 24.445312 17.277344 24.445312 18.242188 C 24.449219 21.085938 24.453125 24.304688 23.542969 27.199219 C 23.304688 27.957031 22.425781 29.292969 21.921875 29.878906 C 21.546875 30.320312 21.097656 30.65625 20.664062 30.980469 C 20.003906 31.472656 19.324219 31.980469 18.507812 32.28125 C 17.683594 32.578125 16.804688 32.640625 15.957031 32.640625 Z M 16.132812 15.128906 C 15.25 15.171875 14.21875 15.53125 13.367188 15.832031 L 13.121094 15.917969 C 12.195312 16.238281 11.46875 16.710938 10.628906 17.257812 L 10.503906 17.335938 C 9.160156 18.207031 8.113281 19.890625 7.636719 21.957031 C 7.242188 23.664062 7.40625 25.59375 8.101562 27.398438 C 8.296875 27.902344 8.492188 28.296875 8.714844 28.636719 C 9.59375 29.976562 10.441406 30.417969 11.851562 31.148438 C 12.058594 31.257812 13.773438 31.792969 15.597656 31.824219 C 16.476562 31.84375 17.40625 31.8125 18.230469 31.515625 C 18.933594 31.257812 19.566406 30.785156 20.179688 30.328125 C 20.578125 30.027344 20.988281 29.722656 21.308594 29.351562 C 21.746094 28.835938 22.574219 27.570312 22.769531 26.953125 C 23.640625 24.179688 23.636719 21.023438 23.636719 18.242188 C 23.632812 16.953125 23.632812 15.734375 23.726562 14.71875 C 23.738281 14.566406 23.835938 14.433594 23.976562 14.378906 C 24.117188 14.320312 24.277344 14.347656 24.394531 14.445312 C 25.679688 15.539062 27.417969 16.101562 29.097656 15.984375 C 29.105469 15.34375 29.121094 14.785156 29.132812 14.230469 C 29.144531 13.679688 29.15625 13.128906 29.164062 12.5 C 27.613281 12.347656 26.320312 11.910156 24.875 10.488281 C 24.46875 10.085938 24 9.3125 23.808594 8.726562 C 23.550781 7.925781 23.523438 7.0625 23.496094 6.148438 L 23.488281 5.890625 C 22.453125 5.90625 21.078125 6.050781 19.949219 6.167969 L 19.40625 6.222656 C 19.394531 7.699219 19.507812 9.207031 19.621094 10.667969 C 19.742188 12.265625 19.867188 13.917969 19.828125 15.546875 L 19.757812 18.476562 C 19.71875 20.0625 19.679688 21.703125 19.578125 23.332031 C 19.53125 24.0625 19.460938 24.765625 19.136719 25.410156 C 18.613281 26.449219 17.738281 27.242188 16.738281 27.578125 C 15.699219 27.925781 14.636719 27.90625 13.738281 27.523438 C 12.820312 27.132812 12.03125 26.792969 11.589844 25.71875 C 11.433594 25.339844 11.210938 24.492188 11.210938 24.023438 C 11.21875 22.597656 11.476562 22.140625 11.777344 21.613281 C 11.789062 21.59375 11.804688 21.574219 11.820312 21.554688 C 12.332031 20.785156 12.863281 20.210938 13.769531 19.921875 C 14.449219 19.707031 15.148438 19.664062 15.835938 19.652344 C 15.886719 18.25 15.945312 16.542969 16.132812 15.128906 Z M 16.132812 15.128906 "/>
<path style=" stroke:none;fill-rule:nonzero;fill:rgb(0.392157%,0.392157%,0.392157%);fill-opacity:1;" d="M 17.296875 33.65625 C 16.972656 33.65625 16.652344 33.640625 16.332031 33.609375 C 15.046875 33.472656 14.011719 33.140625 12.75 32.457031 C 12.035156 32.070312 11.113281 31.433594 10.667969 30.886719 C 9.820312 29.839844 9.03125 28.28125 8.785156 27.433594 C 8.371094 25.992188 8.402344 23.898438 8.695312 22.914062 L 8.765625 22.660156 C 8.957031 21.980469 9.242188 20.957031 9.96875 19.863281 C 10.472656 19.109375 11.863281 17.820312 12.769531 17.394531 C 14.4375 16.605469 15.535156 16.546875 17.203125 16.460938 L 17.652344 16.4375 C 17.863281 16.414062 18.058594 16.589844 18.078125 16.8125 C 18.199219 18.359375 18.160156 20.03125 17.96875 21.394531 C 17.953125 21.503906 17.894531 21.601562 17.808594 21.667969 C 17.71875 21.730469 17.609375 21.757812 17.503906 21.742188 C 16.523438 21.585938 15.535156 21.535156 14.917969 22.210938 C 14.246094 22.949219 13.878906 23.578125 13.730469 24.246094 C 13.441406 25.566406 13.757812 26.75 14.585938 27.414062 C 14.820312 27.597656 15.128906 27.742188 15.503906 27.835938 C 17.363281 28.300781 19.5 27.113281 20.085938 25.292969 C 20.296875 24.632812 20.332031 23.898438 20.367188 23.191406 L 20.441406 21.613281 C 20.679688 16.636719 20.925781 11.488281 20.566406 7.253906 C 20.550781 7.042969 20.695312 6.855469 20.90625 6.820312 C 21.65625 6.695312 22.234375 6.695312 23.039062 6.699219 C 23.296875 6.699219 23.585938 6.699219 23.917969 6.695312 L 24.082031 6.691406 C 26.121094 6.613281 26.167969 6.660156 26.320312 6.804688 C 26.496094 6.96875 26.527344 7.246094 26.574219 7.769531 C 26.585938 7.882812 26.59375 7.984375 26.605469 8.058594 C 27.0625 11.121094 28.277344 12.570312 30.796875 13.066406 C 30.84375 13.078125 30.898438 13.078125 30.953125 13.078125 C 31.171875 13.082031 31.53125 13.09375 31.730469 13.398438 C 31.835938 13.566406 31.847656 13.796875 31.851562 14.128906 L 31.855469 14.246094 C 31.945312 15.5 31.921875 16.382812 31.886719 17.601562 L 31.882812 17.777344 C 31.875 17.960938 31.75 18.117188 31.570312 18.160156 C 30.335938 18.464844 28.769531 18.113281 27.769531 17.636719 C 27.015625 17.277344 26.480469 16.941406 25.875 16.488281 C 25.890625 17.742188 25.84375 19.0625 25.800781 20.253906 C 25.785156 20.714844 25.769531 21.152344 25.757812 21.5625 C 25.757812 21.574219 25.757812 21.585938 25.757812 21.597656 L 25.742188 22.136719 C 25.695312 24.007812 25.640625 25.941406 25.125 27.765625 C 24.472656 30.066406 23.105469 31.878906 21.375 32.742188 C 20.167969 33.335938 18.722656 33.65625 17.296875 33.65625 Z M 17.296875 17.269531 L 17.246094 17.273438 C 15.621094 17.355469 14.640625 17.410156 13.117188 18.128906 C 12.425781 18.453125 11.109375 19.621094 10.644531 20.316406 C 9.988281 21.300781 9.722656 22.25 9.546875 22.878906 L 9.472656 23.144531 C 9.214844 24.019531 9.199219 25.941406 9.566406 27.207031 C 9.789062 27.980469 10.539062 29.4375 11.296875 30.371094 C 11.617188 30.765625 12.375 31.328125 13.136719 31.742188 C 14.296875 32.371094 15.246094 32.675781 16.417969 32.800781 C 17.992188 32.964844 19.667969 32.675781 21.015625 32.007812 C 22.539062 31.25 23.753906 29.621094 24.34375 27.539062 C 24.832031 25.8125 24.882812 23.933594 24.933594 22.113281 L 24.945312 21.601562 C 24.945312 21.589844 24.945312 21.582031 24.945312 21.570312 C 24.957031 21.148438 24.976562 20.695312 24.992188 20.222656 C 25.042969 18.769531 25.101562 17.121094 25.046875 15.65625 C 25.039062 15.496094 25.125 15.351562 25.269531 15.277344 C 25.410156 15.207031 25.582031 15.226562 25.703125 15.324219 C 26.589844 16.03125 27.175781 16.449219 28.121094 16.898438 C 28.910156 17.277344 30.09375 17.566406 31.078125 17.425781 C 31.113281 16.304688 31.132812 15.464844 31.046875 14.304688 C 31.042969 14.265625 31.042969 14.207031 31.042969 14.136719 C 31.039062 14.082031 31.039062 13.976562 31.035156 13.890625 C 31 13.890625 30.964844 13.890625 30.933594 13.886719 C 30.832031 13.886719 30.726562 13.878906 30.640625 13.863281 C 27.800781 13.304688 26.308594 11.550781 25.800781 8.179688 C 25.789062 8.09375 25.777344 7.96875 25.765625 7.839844 C 25.757812 7.738281 25.742188 7.589844 25.726562 7.46875 C 25.503906 7.464844 25.042969 7.464844 24.113281 7.5 L 23.925781 7.507812 C 23.589844 7.511719 23.300781 7.511719 23.035156 7.511719 C 22.394531 7.503906 21.925781 7.507812 21.40625 7.566406 C 21.726562 11.78125 21.484375 16.796875 21.253906 21.652344 L 21.179688 23.226562 C 21.140625 23.988281 21.105469 24.777344 20.859375 25.539062 C 20.136719 27.785156 17.59375 29.191406 15.308594 28.625 C 14.816406 28.5 14.402344 28.304688 14.078125 28.042969 C 13.003906 27.183594 12.578125 25.695312 12.9375 24.066406 C 13.167969 23.023438 13.796875 22.234375 14.320312 21.660156 C 15.09375 20.816406 16.1875 20.757812 17.214844 20.878906 C 17.339844 19.773438 17.371094 18.496094 17.296875 17.269531 Z M 17.296875 17.269531 "/>
<path style=" stroke:none;fill-rule:nonzero;fill:rgb(0.392157%,0.392157%,0.392157%);fill-opacity:1;" d="M 30.257812 36.410156 C 29.386719 36.410156 28.492188 36.359375 27.632812 36.304688 C 27.011719 36.269531 26.414062 36.234375 25.863281 36.222656 C 25.234375 36.207031 24.691406 36.203125 24.171875 36.203125 C 23.210938 36.195312 22.304688 36.191406 21.113281 36.121094 C 19.933594 36.054688 18.972656 36.109375 17.855469 36.167969 C 16.929688 36.21875 15.875 36.277344 14.492188 36.28125 C 12.683594 36.265625 12.140625 36.25 11.554688 36.21875 C 10.960938 36.183594 10.347656 36.152344 8.289062 36.152344 C 5.273438 36.296875 3.496094 34.8125 3.003906 31.746094 C 2.71875 29.984375 2.710938 28.675781 2.726562 25.878906 C 2.726562 25.109375 2.675781 23.8125 2.613281 22.316406 C 2.503906 19.605469 2.367188 16.230469 2.449219 13.539062 C 2.453125 13.496094 2.445312 13.402344 2.441406 13.261719 C 2.25 8.992188 2.878906 6 4.304688 4.371094 C 5.6875 2.796875 10.605469 2.648438 10.65625 2.648438 C 11.152344 2.640625 11.941406 2.59375 12.761719 2.542969 C 13.777344 2.480469 14.835938 2.425781 15.457031 2.421875 C 16.152344 2.425781 16.875 2.445312 17.597656 2.464844 C 18.320312 2.484375 19.039062 2.507812 19.726562 2.511719 C 22.476562 2.523438 24.703125 2.492188 27.28125 2.453125 L 29.726562 2.417969 C 32.71875 2.371094 34.359375 2.902344 35.410156 4.210938 C 36.398438 5.445312 36.453125 9.546875 36.320312 12.773438 C 36.234375 14.871094 36.351562 16.007812 36.457031 17.109375 C 36.589844 18.429688 36.714844 19.671875 36.519531 22.351562 C 36.457031 23.246094 36.53125 24.476562 36.605469 25.671875 C 36.671875 26.769531 36.742188 27.902344 36.703125 28.765625 C 36.6875 29.023438 36.679688 29.296875 36.671875 29.578125 C 36.617188 31.25 36.550781 33.324219 35.523438 34.652344 C 34.410156 36.09375 32.394531 36.410156 30.257812 36.410156 Z M 20.003906 35.277344 C 20.371094 35.277344 20.753906 35.289062 21.160156 35.3125 C 22.328125 35.378906 23.1875 35.382812 24.179688 35.390625 C 24.699219 35.394531 25.25 35.398438 25.882812 35.410156 C 26.441406 35.421875 27.050781 35.457031 27.683594 35.496094 C 30.445312 35.660156 33.578125 35.84375 34.882812 34.15625 C 35.75 33.035156 35.808594 31.105469 35.859375 29.554688 C 35.867188 29.265625 35.875 28.988281 35.890625 28.726562 C 35.929688 27.90625 35.859375 26.792969 35.792969 25.71875 C 35.71875 24.5 35.640625 23.242188 35.710938 22.292969 C 35.898438 19.683594 35.777344 18.472656 35.648438 17.191406 C 35.539062 16.0625 35.421875 14.894531 35.507812 12.738281 C 35.679688 8.503906 35.40625 5.503906 34.773438 4.71875 C 33.898438 3.628906 32.449219 3.203125 29.734375 3.230469 L 27.292969 3.265625 C 24.710938 3.304688 22.484375 3.335938 19.722656 3.320312 C 19.027344 3.316406 18.300781 3.296875 17.578125 3.277344 C 16.859375 3.257812 16.140625 3.238281 15.453125 3.234375 C 14.847656 3.21875 13.816406 3.292969 12.8125 3.355469 C 11.976562 3.40625 11.175781 3.453125 10.667969 3.460938 C 9.453125 3.480469 5.839844 3.859375 4.917969 4.90625 C 4.03125 5.914062 3.027344 8.175781 3.253906 13.226562 C 3.257812 13.398438 3.265625 13.511719 3.261719 13.5625 C 3.179688 16.226562 3.316406 19.585938 3.425781 22.28125 C 3.488281 23.789062 3.542969 25.09375 3.539062 25.882812 C 3.523438 28.820312 3.542969 29.992188 3.804688 31.617188 C 4.230469 34.25 5.699219 35.449219 8.257812 35.339844 L 8.28125 35.339844 C 10.367188 35.339844 10.992188 35.371094 11.601562 35.40625 C 12.171875 35.441406 12.71875 35.46875 14.492188 35.46875 C 15.851562 35.464844 16.894531 35.410156 17.8125 35.359375 C 18.570312 35.316406 19.261719 35.277344 20.003906 35.277344 Z M 20.003906 35.277344 "/>
</g>
</svg>
