<?xml version="1.0" encoding="UTF-8"?>
<svg xmlns="http://www.w3.org/2000/svg" xmlns:xlink="http://www.w3.org/1999/xlink" width="39px" height="px" viewBox="0 0 39 39" version="1.1">
<g id="surface1">
<path style=" stroke:none;fill-rule:nonzero;fill:rgb(29.411765%,48.235294%,69.803922%);fill-opacity:1;" d="M 9.71875 34.058594 C 9.988281 34.257812 10.269531 34.441406 10.566406 34.605469 C 11.359375 35.035156 12.242188 35.277344 13.121094 35.476562 C 18.722656 36.75 25.355469 36.777344 29.917969 32.789062 C 34.996094 28.34375 37.753906 20.523438 35.84375 13.957031 C 35.640625 13.257812 35.386719 12.570312 35.117188 11.890625 C 34.742188 10.9375 34.339844 9.992188 33.828125 9.101562 C 29.980469 2.378906 20.089844 0.179688 13.472656 3.46875 C 12.625 3.890625 11.816406 4.382812 11.011719 4.875 C 9.175781 5.992188 7.59375 7.449219 6.152344 9.042969 C 2.074219 13.554688 0.882812 20.058594 2.738281 25.59375 C 3.726562 28.542969 6.121094 30.800781 8.394531 32.921875 C 8.820312 33.320312 9.253906 33.710938 9.71875 34.058594 Z M 9.71875 34.058594 "/>
<path style=" stroke:none;fill-rule:nonzero;fill:rgb(0.392157%,0.392157%,0.392157%);fill-opacity:1;" d="M 19.542969 36.65625 C 17.226562 36.65625 14.980469 36.316406 13.035156 35.871094 C 12.15625 35.671875 11.230469 35.421875 10.375 34.960938 C 10.074219 34.796875 9.78125 34.609375 9.476562 34.382812 C 9.023438 34.046875 8.605469 33.675781 8.117188 33.21875 C 5.902344 31.15625 3.390625 28.8125 2.351562 25.722656 C 0.410156 19.925781 1.78125 13.273438 5.851562 8.769531 C 7.515625 6.925781 9.136719 5.539062 10.796875 4.527344 C 11.605469 4.035156 12.433594 3.53125 13.289062 3.105469 C 19.75 -0.105469 30.054688 1.691406 34.183594 8.898438 C 34.734375 9.863281 35.15625 10.878906 35.496094 11.742188 C 35.71875 12.3125 36.007812 13.066406 36.230469 13.84375 C 38.109375 20.289062 35.566406 28.382812 30.183594 33.089844 C 27.105469 35.789062 23.238281 36.65625 19.542969 36.65625 Z M 20.289062 2.375 C 17.910156 2.375 15.597656 2.867188 13.652344 3.832031 C 12.824219 4.246094 12.011719 4.738281 11.230469 5.214844 C 9.625 6.191406 8.066406 7.53125 6.457031 9.316406 C 2.578125 13.605469 1.273438 19.945312 3.125 25.464844 C 4.09375 28.359375 6.527344 30.628906 8.671875 32.625 C 9.140625 33.0625 9.539062 33.417969 9.960938 33.730469 C 10.234375 33.933594 10.496094 34.101562 10.761719 34.246094 C 11.53125 34.664062 12.394531 34.894531 13.214844 35.082031 C 18.089844 36.1875 24.898438 36.636719 29.648438 32.480469 C 34.804688 27.972656 37.246094 20.230469 35.453125 14.074219 C 35.234375 13.328125 34.957031 12.59375 34.738281 12.039062 C 34.410156 11.203125 34.003906 10.222656 33.476562 9.304688 C 30.808594 4.644531 25.402344 2.375 20.289062 2.375 Z M 20.289062 2.375 "/>
<path style=" stroke:none;fill-rule:nonzero;fill:rgb(83.921569%,89.803922%,89.803922%);fill-opacity:1;" d="M 27.589844 13.609375 C 27.558594 13.585938 27.53125 13.554688 27.507812 13.515625 C 27.417969 13.367188 27.394531 13.1875 27.34375 13.019531 C 27.167969 12.464844 26.628906 12.089844 26.0625 11.945312 C 25.5 11.804688 24.90625 11.855469 24.328125 11.910156 C 23.867188 11.953125 23.398438 11.996094 22.96875 12.167969 C 22.515625 12.351562 22.128906 12.667969 21.785156 13.015625 C 20.894531 13.914062 20.242188 15.085938 20.09375 16.34375 C 20.070312 16.523438 20.035156 16.734375 19.871094 16.808594 C 19.800781 16.839844 19.71875 16.835938 19.640625 16.828125 C 17.605469 16.675781 15.707031 15.777344 13.863281 14.890625 C 13.292969 14.617188 12.714844 14.335938 12.203125 13.957031 C 11.96875 13.785156 11.121094 12.675781 10.996094 13.191406 C 10.640625 14.632812 10.855469 16.207031 11.582031 17.503906 C 11.757812 17.8125 11.96875 18.121094 12.285156 18.28125 C 11.753906 18.195312 11.222656 18.113281 10.691406 18.027344 C 10.644531 18.359375 10.59375 18.703125 10.703125 19.019531 C 10.773438 19.214844 10.902344 19.382812 11.027344 19.550781 C 11.390625 20.027344 11.75 20.503906 12.109375 20.980469 C 12.367188 21.320312 12.625 21.660156 12.964844 21.910156 C 13.304688 22.164062 13.742188 22.3125 14.15625 22.21875 C 13.625 22.371094 13.0625 22.414062 12.515625 22.339844 C 12.671875 23.152344 13.15625 23.894531 13.839844 24.359375 C 14.523438 24.820312 15.394531 25.003906 16.207031 24.847656 C 15.890625 25.324219 15.363281 25.609375 14.84375 25.847656 C 14.078125 26.199219 13.28125 26.496094 12.46875 26.726562 C 12.046875 26.847656 11.621094 26.953125 11.195312 27.039062 C 11.070312 27.0625 10.582031 27.078125 10.507812 27.164062 C 10.433594 27.25 10.394531 27.460938 10.589844 27.519531 C 10.652344 27.539062 10.714844 27.566406 10.777344 27.585938 C 13.300781 28.410156 16.171875 29.207031 18.832031 28.648438 C 20.285156 28.34375 21.617188 27.636719 22.878906 26.859375 C 23.511719 26.472656 24.136719 26.058594 24.664062 25.539062 C 25.46875 24.753906 26.023438 23.75 26.527344 22.746094 C 27.070312 21.671875 27.578125 20.570312 27.941406 19.417969 C 28.132812 18.816406 28.285156 18.207031 28.382812 17.585938 C 28.421875 17.335938 28.375 17.007812 28.417969 16.785156 C 28.488281 16.425781 28.882812 16.464844 29.128906 16.199219 C 29.667969 15.617188 30.109375 14.945312 30.433594 14.21875 C 29.792969 14.417969 29.273438 14.949219 28.609375 15.023438 C 29.148438 14.410156 29.523438 13.65625 29.695312 12.855469 C 29.613281 13.234375 28.695312 13.546875 28.378906 13.613281 C 28.132812 13.667969 27.796875 13.789062 27.589844 13.609375 Z M 27.589844 13.609375 "/>
<path style=" stroke:none;fill-rule:nonzero;fill:rgb(0.392157%,0.392157%,0.392157%);fill-opacity:1;" d="M 16.960938 29.238281 C 14.871094 29.238281 12.714844 28.648438 10.652344 27.972656 L 10.472656 27.910156 C 10.269531 27.847656 10.121094 27.703125 10.066406 27.507812 C 10.003906 27.304688 10.058594 27.0625 10.199219 26.898438 C 10.351562 26.71875 10.59375 26.691406 10.976562 26.65625 C 11.035156 26.648438 11.085938 26.644531 11.117188 26.640625 C 11.53125 26.554688 11.945312 26.453125 12.355469 26.335938 C 13.148438 26.109375 13.929688 25.820312 14.675781 25.476562 C 14.816406 25.414062 14.957031 25.34375 15.09375 25.269531 C 14.566406 25.191406 14.058594 24.996094 13.613281 24.691406 C 12.835938 24.167969 12.292969 23.335938 12.117188 22.414062 C 12.09375 22.285156 12.132812 22.152344 12.222656 22.058594 C 12.269531 22.007812 12.328125 21.972656 12.394531 21.949219 C 12.160156 21.71875 11.964844 21.460938 11.785156 21.222656 L 10.703125 19.792969 C 10.574219 19.621094 10.414062 19.414062 10.320312 19.152344 C 10.171875 18.730469 10.238281 18.304688 10.292969 17.960938 C 10.308594 17.855469 10.367188 17.761719 10.453125 17.695312 C 10.539062 17.632812 10.648438 17.605469 10.757812 17.625 L 11.226562 17.699219 C 10.453125 16.3125 10.222656 14.632812 10.601562 13.089844 C 10.675781 12.777344 10.898438 12.6875 10.992188 12.664062 C 11.417969 12.550781 11.808594 12.96875 12.226562 13.40625 C 12.316406 13.503906 12.394531 13.589844 12.445312 13.628906 C 12.933594 13.992188 13.519531 14.273438 14.039062 14.519531 C 15.828125 15.382812 17.679688 16.273438 19.667969 16.417969 C 19.671875 16.402344 19.679688 16.351562 19.6875 16.292969 C 19.839844 15.015625 20.484375 13.75 21.496094 12.726562 C 21.953125 12.265625 22.371094 11.96875 22.816406 11.789062 C 23.308594 11.59375 23.828125 11.546875 24.289062 11.503906 C 24.867188 11.453125 25.523438 11.390625 26.164062 11.550781 C 26.925781 11.746094 27.527344 12.261719 27.730469 12.894531 C 27.75 12.957031 27.765625 13.015625 27.78125 13.078125 C 27.800781 13.164062 27.824219 13.246094 27.851562 13.296875 C 27.914062 13.300781 28.078125 13.265625 28.167969 13.246094 L 28.292969 13.214844 C 28.6875 13.128906 29.226562 12.882812 29.304688 12.746094 C 29.355469 12.527344 29.570312 12.398438 29.785156 12.449219 C 30.003906 12.496094 30.140625 12.722656 30.09375 12.941406 C 30.007812 13.34375 29.871094 13.734375 29.695312 14.105469 C 29.886719 14 30.089844 13.898438 30.3125 13.828125 C 30.460938 13.78125 30.628906 13.828125 30.734375 13.949219 C 30.839844 14.066406 30.867188 14.234375 30.804688 14.382812 C 30.460938 15.152344 30 15.855469 29.429688 16.472656 C 29.273438 16.640625 29.09375 16.726562 28.960938 16.785156 C 28.910156 16.8125 28.832031 16.847656 28.8125 16.867188 C 28.800781 16.9375 28.804688 17.058594 28.804688 17.179688 C 28.804688 17.339844 28.804688 17.507812 28.785156 17.648438 C 28.6875 18.253906 28.535156 18.890625 28.328125 19.539062 C 27.921875 20.828125 27.34375 22.03125 26.890625 22.929688 C 26.40625 23.886719 25.820312 24.976562 24.949219 25.828125 C 24.390625 26.378906 23.726562 26.816406 23.09375 27.203125 C 21.917969 27.925781 20.507812 28.710938 18.914062 29.046875 C 18.273438 29.179688 17.621094 29.238281 16.960938 29.238281 Z M 11.496094 27.390625 C 13.820312 28.125 16.371094 28.75 18.75 28.25 C 20.21875 27.941406 21.554688 27.199219 22.667969 26.511719 C 23.351562 26.089844 23.90625 25.714844 24.378906 25.25 C 25.164062 24.480469 25.710938 23.460938 26.164062 22.5625 C 26.605469 21.691406 27.160156 20.527344 27.554688 19.292969 C 27.746094 18.683594 27.890625 18.089844 27.980469 17.523438 C 27.996094 17.421875 27.992188 17.300781 27.992188 17.1875 C 27.988281 17.027344 27.988281 16.859375 28.019531 16.707031 C 28.101562 16.292969 28.421875 16.140625 28.613281 16.050781 C 28.707031 16.007812 28.785156 15.972656 28.828125 15.921875 C 29.046875 15.691406 29.242188 15.445312 29.421875 15.1875 C 29.1875 15.304688 28.9375 15.394531 28.65625 15.429688 C 28.480469 15.445312 28.328125 15.363281 28.25 15.214844 C 28.171875 15.066406 28.195312 14.886719 28.304688 14.757812 C 28.535156 14.492188 28.738281 14.195312 28.898438 13.882812 C 28.65625 13.96875 28.46875 14.007812 28.464844 14.011719 L 28.359375 14.035156 C 28.082031 14.101562 27.660156 14.207031 27.320312 13.917969 C 27.320312 13.917969 27.320312 13.917969 27.320312 13.914062 C 27.257812 13.863281 27.203125 13.796875 27.160156 13.726562 C 27.0625 13.570312 27.023438 13.40625 26.992188 13.273438 C 26.980469 13.226562 26.96875 13.183594 26.957031 13.140625 C 26.816406 12.699219 26.351562 12.4375 25.964844 12.339844 C 25.460938 12.210938 24.902344 12.261719 24.367188 12.3125 C 23.941406 12.351562 23.5 12.390625 23.117188 12.542969 C 22.777344 12.679688 22.445312 12.921875 22.074219 13.296875 C 21.1875 14.191406 20.625 15.292969 20.496094 16.390625 C 20.472656 16.574219 20.421875 17.007812 20.035156 17.175781 C 19.867188 17.25 19.699219 17.242188 19.609375 17.230469 C 17.46875 17.074219 15.460938 16.105469 13.6875 15.253906 C 13.140625 14.988281 12.515625 14.691406 11.960938 14.28125 C 11.890625 14.230469 11.773438 14.113281 11.636719 13.96875 C 11.5625 13.890625 11.4375 13.753906 11.316406 13.644531 C 11.097656 14.886719 11.320312 16.203125 11.9375 17.304688 C 12.0625 17.527344 12.234375 17.796875 12.472656 17.917969 C 12.648438 18.007812 12.734375 18.214844 12.671875 18.40625 C 12.613281 18.59375 12.425781 18.710938 12.222656 18.683594 L 11.046875 18.496094 C 11.039062 18.632812 11.046875 18.769531 11.089844 18.882812 C 11.140625 19.023438 11.246094 19.167969 11.351562 19.304688 L 12.433594 20.738281 C 12.667969 21.046875 12.910156 21.367188 13.207031 21.585938 C 13.488281 21.792969 13.804688 21.878906 14.0625 21.824219 C 14.277344 21.773438 14.492188 21.902344 14.550781 22.117188 C 14.605469 22.328125 14.480469 22.546875 14.269531 22.609375 C 13.878906 22.722656 13.472656 22.777344 13.066406 22.78125 C 13.269531 23.28125 13.621094 23.71875 14.070312 24.023438 C 14.667969 24.429688 15.417969 24.585938 16.128906 24.449219 C 16.289062 24.417969 16.449219 24.484375 16.542969 24.621094 C 16.632812 24.757812 16.632812 24.933594 16.542969 25.070312 C 16.179688 25.628906 15.59375 25.953125 15.015625 26.21875 C 14.230469 26.578125 13.410156 26.882812 12.578125 27.117188 C 12.222656 27.222656 11.863281 27.3125 11.496094 27.390625 Z M 27.851562 13.300781 L 27.585938 13.609375 Z M 27.851562 13.300781 "/>
</g>
</svg>
