<?xml version="1.0" encoding="UTF-8"?>
<svg xmlns="http://www.w3.org/2000/svg" xmlns:xlink="http://www.w3.org/1999/xlink" width="39px" height="px" viewBox="0 0 39 39" version="1.1">
<g id="surface1">
<path style=" stroke:none;fill-rule:nonzero;fill:rgb(29.411765%,48.235294%,69.803922%);fill-opacity:1;" d="M 4.558594 27.375 C 1.625 21.757812 2.613281 13.117188 6.820312 8.367188 C 9.492188 5.351562 13.84375 3.347656 17.859375 2.929688 C 21.871094 2.515625 26.082031 3.664062 29.140625 6.285156 C 29.976562 7 30.71875 7.8125 31.441406 8.636719 C 32.171875 9.472656 32.886719 10.332031 33.5 11.257812 C 35.507812 14.296875 36.347656 18.085938 35.808594 21.6875 C 35.265625 25.285156 33.355469 28.664062 30.542969 30.984375 C 29.6875 31.691406 28.757812 32.300781 27.828125 32.910156 C 26.925781 33.5 26.019531 34.089844 25.035156 34.53125 C 23.796875 35.082031 22.460938 35.378906 21.121094 35.621094 C 18.992188 36 16.738281 36.226562 14.710938 35.46875 C 13.839844 35.140625 13.042969 34.640625 12.15625 34.351562 C 9.863281 33.605469 7.210938 34.535156 4.800781 34.4375 C 4.613281 34.429688 4.417969 34.414062 4.257812 34.316406 C 4.011719 34.164062 3.914062 33.859375 3.886719 33.574219 C 3.761719 32.308594 4.839844 31.019531 5.050781 29.765625 C 5.1875 28.945312 4.945312 28.113281 4.558594 27.375 Z M 4.558594 27.375 "/>
<path style=" stroke:none;fill-rule:nonzero;fill:rgb(0.392157%,0.392157%,0.392157%);fill-opacity:1;" d="M 34.628906 12.378906 C 33.695312 10.582031 32.359375 9.015625 30.996094 7.53125 C 29.734375 6.160156 28.308594 4.980469 26.640625 4.132812 C 20.25 0.894531 11.839844 2.550781 6.898438 7.683594 C 4.710938 9.957031 3.410156 12.988281 2.828125 16.058594 C 2.238281 19.183594 2.324219 22.515625 3.347656 25.546875 C 3.582031 26.246094 3.871094 26.925781 4.207031 27.582031 C 4.710938 28.582031 4.800781 29.523438 4.386719 30.566406 C 4.054688 31.402344 3.570312 32.203125 3.484375 33.117188 C 3.417969 33.855469 3.65625 34.65625 4.464844 34.8125 C 5.359375 34.980469 6.378906 34.800781 7.269531 34.699219 C 8.273438 34.585938 9.28125 34.445312 10.292969 34.46875 C 11.355469 34.492188 12.285156 34.789062 13.234375 35.246094 C 14.097656 35.660156 14.949219 36.039062 15.898438 36.214844 C 16.851562 36.386719 17.820312 36.410156 18.785156 36.339844 C 20.800781 36.1875 22.925781 35.824219 24.804688 35.066406 C 26.667969 34.316406 28.414062 33.09375 30.019531 31.90625 C 32.90625 29.765625 35.03125 26.707031 35.914062 23.210938 C 36.828125 19.59375 36.34375 15.683594 34.628906 12.378906 Z M 35.527344 20.5 C 35.300781 23.921875 33.78125 27.222656 31.382812 29.664062 C 30.066406 31.003906 28.480469 32.019531 26.90625 33.023438 C 26.058594 33.5625 25.1875 34.066406 24.242188 34.414062 C 23.316406 34.753906 22.347656 34.976562 21.378906 35.160156 C 19.519531 35.511719 17.542969 35.789062 15.675781 35.339844 C 14.757812 35.117188 13.949219 34.667969 13.09375 34.285156 C 12.304688 33.9375 11.5 33.726562 10.640625 33.671875 C 8.769531 33.550781 6.929688 34.0625 5.0625 34.039062 C 4.878906 34.035156 4.582031 34.070312 4.433594 33.941406 C 4.273438 33.800781 4.277344 33.464844 4.285156 33.273438 C 4.304688 32.816406 4.484375 32.363281 4.660156 31.949219 C 4.980469 31.199219 5.382812 30.464844 5.472656 29.644531 C 5.570312 28.777344 5.296875 27.9375 4.910156 27.171875 C 3.542969 24.519531 3.121094 21.449219 3.328125 18.496094 C 3.535156 15.5 4.417969 12.476562 6.097656 9.96875 C 7.90625 7.261719 10.777344 5.367188 13.8125 4.285156 C 17.039062 3.132812 20.527344 2.90625 23.828125 3.886719 C 25.46875 4.371094 27.035156 5.144531 28.390625 6.195312 C 29.886719 7.355469 31.175781 8.859375 32.339844 10.347656 C 34.601562 13.230469 35.773438 16.832031 35.527344 20.5 Z M 35.527344 20.5 "/>
<path style=" stroke:none;fill-rule:nonzero;fill:rgb(83.921569%,89.803922%,89.803922%);fill-opacity:1;" d="M 8.589844 14.484375 C 8.273438 16.964844 9.179688 18.792969 10.398438 20.679688 C 12.273438 23.585938 14.777344 26.410156 18.144531 27.132812 C 19.09375 27.335938 20.351562 27.191406 20.65625 26.261719 C 20.84375 25.691406 20.566406 25.082031 20.488281 24.484375 C 20.40625 23.890625 20.726562 23.109375 21.320312 23.160156 C 21.632812 23.1875 21.871094 23.441406 22.078125 23.675781 C 22.769531 24.460938 23.457031 25.242188 24.148438 26.027344 C 24.683594 26.636719 25.636719 27.25 26.363281 27.148438 C 26.886719 27.078125 27.828125 26.949219 28.339844 26.8125 C 28.476562 26.777344 28.625 26.730469 28.722656 26.625 C 28.851562 26.480469 28.863281 26.265625 28.851562 26.070312 C 28.804688 25.390625 28.5625 24.726562 28.160156 24.179688 C 27.4375 23.191406 26.199219 22.550781 25.835938 21.378906 C 25.449219 20.132812 26.210938 18.839844 27.023438 17.828125 C 27.839844 16.8125 28.792969 15.761719 28.859375 14.460938 C 28.875 14.203125 28.824219 13.898438 28.59375 13.785156 C 28.476562 13.726562 28.335938 13.730469 28.207031 13.742188 C 26.929688 13.832031 25.664062 14.113281 24.464844 14.566406 C 24.230469 14.652344 23.988281 14.753906 23.828125 14.945312 C 23.613281 15.199219 23.574219 15.550781 23.53125 15.878906 C 23.292969 17.605469 22.429688 19.328125 20.796875 19.90625 C 20.71875 18.53125 20.742188 17.257812 20.878906 15.890625 C 20.921875 15.445312 20.949219 14.929688 20.625 14.625 C 20.382812 14.398438 20.023438 14.367188 19.6875 14.355469 C 18.460938 14.308594 17.226562 14.316406 16 14.378906 C 15.621094 14.398438 15.140625 14.523438 15.109375 14.898438 C 15.089844 15.117188 15.242188 15.304688 15.375 15.480469 C 16.347656 16.773438 16.371094 18.527344 16.359375 20.148438 C 16.355469 20.542969 16.238281 21.0625 15.847656 21.078125 C 15.601562 21.085938 15.414062 20.871094 15.273438 20.671875 C 14.285156 19.316406 13.496094 17.816406 12.929688 16.238281 C 12.746094 15.726562 12.582031 15.277344 12.222656 14.875 C 11.390625 13.933594 9.328125 14.351562 8.589844 14.484375 Z M 8.589844 14.484375 "/>
<path style=" stroke:none;fill-rule:nonzero;fill:rgb(0.392157%,0.392157%,0.392157%);fill-opacity:1;" d="M 29.132812 25.292969 C 28.882812 24.335938 28.277344 23.617188 27.570312 22.953125 C 26.839844 22.265625 26.039062 21.558594 26.152344 20.457031 C 26.378906 18.226562 28.898438 17.039062 29.230469 14.8125 C 29.289062 14.394531 29.308594 13.894531 28.980469 13.570312 C 28.597656 13.1875 27.949219 13.347656 27.476562 13.410156 C 26.835938 13.488281 26.203125 13.609375 25.578125 13.78125 C 25.007812 13.933594 24.355469 14.09375 23.851562 14.40625 C 23.402344 14.679688 23.234375 15.132812 23.15625 15.628906 C 23.078125 16.15625 22.980469 16.675781 22.792969 17.183594 C 22.484375 18.027344 21.953125 18.796875 21.1875 19.261719 C 21.160156 18.265625 21.167969 17.273438 21.25 16.277344 C 21.320312 15.410156 21.414062 14.339844 20.371094 14.035156 C 19.910156 13.902344 19.382812 13.933594 18.914062 13.925781 C 18.265625 13.914062 17.617188 13.914062 16.96875 13.933594 C 16.289062 13.953125 15.007812 13.828125 14.738281 14.683594 C 14.597656 15.128906 14.886719 15.472656 15.117188 15.816406 C 15.429688 16.273438 15.628906 16.785156 15.753906 17.324219 C 15.867188 17.820312 15.914062 18.328125 15.9375 18.835938 C 15.960938 19.332031 16.03125 19.921875 15.929688 20.414062 C 15.84375 20.804688 15.691406 20.554688 15.515625 20.320312 C 15.375 20.128906 15.242188 19.929688 15.113281 19.726562 C 14.785156 19.226562 14.484375 18.707031 14.210938 18.175781 C 13.710938 17.207031 13.4375 16.128906 12.921875 15.175781 C 12.03125 13.527344 10.046875 13.808594 8.484375 14.089844 C 8.269531 14.128906 8.1875 14.285156 8.195312 14.449219 C 8.191406 14.460938 8.1875 14.46875 8.183594 14.484375 C 7.9375 16.609375 8.605469 18.539062 9.703125 20.335938 C 10.765625 22.074219 12.011719 23.761719 13.542969 25.117188 C 14.933594 26.347656 16.742188 27.472656 18.640625 27.609375 C 19.386719 27.667969 20.25 27.507812 20.753906 26.90625 C 21.027344 26.582031 21.140625 26.164062 21.125 25.742188 C 21.105469 25.195312 20.804688 24.640625 20.898438 24.097656 C 20.925781 23.941406 21 23.679688 21.160156 23.605469 C 21.425781 23.488281 21.632812 23.789062 21.792969 23.964844 C 22.234375 24.445312 22.65625 24.945312 23.085938 25.433594 C 23.800781 26.25 24.496094 27.125 25.574219 27.464844 C 26.351562 27.707031 27.320312 27.445312 28.097656 27.289062 C 28.480469 27.210938 28.886719 27.121094 29.113281 26.773438 C 29.375 26.355469 29.25 25.738281 29.132812 25.292969 Z M 28.230469 26.421875 C 27.925781 26.578125 27.4375 26.585938 27.101562 26.636719 C 26.695312 26.699219 26.265625 26.8125 25.859375 26.699219 C 24.847656 26.421875 24.1875 25.457031 23.53125 24.710938 C 23.140625 24.273438 22.761719 23.824219 22.367188 23.390625 C 22.085938 23.082031 21.757812 22.773438 21.320312 22.753906 C 20.59375 22.722656 20.164062 23.417969 20.085938 24.0625 C 19.988281 24.859375 20.769531 26.074219 19.875 26.597656 C 19.167969 27.007812 18.222656 26.769531 17.503906 26.542969 C 16.628906 26.265625 15.816406 25.828125 15.070312 25.300781 C 13.339844 24.078125 11.984375 22.367188 10.835938 20.609375 C 9.664062 18.816406 8.832031 16.980469 8.976562 14.828125 C 9.519531 14.734375 10.066406 14.664062 10.621094 14.6875 C 11.5 14.726562 12.027344 15.082031 12.371094 15.902344 C 12.769531 16.859375 13.101562 17.824219 13.589844 18.746094 C 14.019531 19.558594 14.507812 20.550781 15.175781 21.191406 C 15.789062 21.777344 16.542969 21.367188 16.710938 20.628906 C 16.894531 19.824219 16.78125 18.828125 16.683594 18.015625 C 16.578125 17.097656 16.34375 16.179688 15.820312 15.40625 C 15.757812 15.316406 15.675781 15.234375 15.625 15.140625 C 15.535156 14.980469 15.503906 14.957031 15.640625 14.855469 C 15.765625 14.757812 16.046875 14.785156 16.191406 14.777344 C 16.773438 14.746094 17.359375 14.734375 17.941406 14.730469 C 18.566406 14.730469 19.210938 14.707031 19.832031 14.769531 C 20.183594 14.800781 20.429688 14.898438 20.488281 15.28125 C 20.53125 15.539062 20.476562 15.828125 20.453125 16.085938 C 20.339844 17.359375 20.320312 18.632812 20.390625 19.90625 C 20.402344 20.148438 20.640625 20.398438 20.902344 20.296875 C 22.492188 19.699219 23.429688 18.238281 23.800781 16.632812 C 23.890625 16.242188 23.882812 15.796875 24.023438 15.421875 C 24.21875 14.929688 24.984375 14.800781 25.4375 14.664062 C 25.9375 14.515625 26.441406 14.394531 26.953125 14.304688 C 27.246094 14.253906 27.542969 14.210938 27.839844 14.179688 C 28.109375 14.152344 28.390625 14.023438 28.453125 14.332031 C 28.535156 14.730469 28.289062 15.28125 28.113281 15.628906 C 27.871094 16.109375 27.539062 16.546875 27.203125 16.964844 C 26.605469 17.710938 25.984375 18.4375 25.617188 19.332031 C 25.265625 20.191406 25.210938 21.125 25.640625 21.96875 C 26.003906 22.675781 26.644531 23.183594 27.203125 23.726562 C 27.542969 24.054688 27.859375 24.394531 28.082031 24.816406 C 28.269531 25.167969 28.726562 26.171875 28.230469 26.421875 Z M 28.230469 26.421875 "/>
</g>
</svg>
